<svg width="109" height="40" viewBox="0 0 109 40" fill="none" xmlns="http://www.w3.org/2000/svg">
<g clip-path="url(#clip0_44_1229)">
<path d="M11.764 28.1369V29.7563H15.4776V33.2347H0.326172V23.2779C0.326172 22.3701 0.493478 21.5229 0.82696 20.7374C1.16157 19.9518 1.62506 19.2649 2.21967 18.6754C2.81429 18.086 3.50725 17.6265 4.29969 17.2948C5.09214 16.9631 5.94563 16.7983 6.86242 16.7983H15.4776V28.1369H11.764Z" fill="#1565C0"/>
<path d="M26.3969 11.9381V28.1369H14.7363V16.7983H15.479L26.3969 11.9393V11.9381ZM18.8206 11.9381L16.2952 9.47161L18.8206 6.96811L21.3461 9.47161L18.8206 11.9381ZM23.8715 11.9381L21.3461 9.47161L23.8715 6.96811L26.3969 9.47161L23.8715 11.9381Z" fill="#1565C0"/>
<path d="M33.3413 11.9381H35.8668V28.1369H25.6543V16.7983H28.5143V11.9393H33.3425L30.8171 9.47274L33.3425 6.96924L35.8679 9.47274L33.3425 11.9393L33.3413 11.9381Z" fill="#1565C0"/>
<path d="M46.5488 31.3767V24.8972H44.9571V28.1369H37.7969V20.0381C37.7969 18.9331 38.0015 17.8909 38.4118 16.9093C38.8211 15.9276 39.3885 15.0681 40.112 14.3318C40.8355 13.5955 41.6788 13.0128 42.6431 12.5836C43.6074 12.1544 44.644 11.9392 45.753 11.9392C46.7896 11.9392 47.79 12.1477 48.7543 12.5646C49.7186 12.9826 50.5675 13.5586 51.3035 14.2948C52.0382 15.0311 52.6238 15.8906 53.0568 16.8723C53.4909 17.854 53.7079 18.9096 53.7079 20.0381V28.1369L46.5477 31.3767H46.5488ZM44.9571 20.8472H46.5488V19.2279H44.9571V20.8472Z" fill="#1565C0"/>
<path d="M65.0562 13.8365V28.1369H62.5308L65.0562 30.6404L62.5308 33.107L60.0054 30.6404L62.5308 28.1369H57.48L60.0054 30.6404L57.48 33.107L54.9545 30.6404L57.48 28.1369H53.3945V18.1128L55.444 18.0927L65.0562 13.8365Z" fill="#1565C0"/>
<path d="M74.3091 28.1369H66.9668V12.9938L74.3091 9.7529V28.1369Z" fill="#1565C0"/>
<path d="M95.4138 30.5116L80.9316 39.8017V6.83028L95.4138 0.402313V30.5116Z" fill="#1565C0"/>
<path d="M105.978 8.55492V37.4987L90.8301 39.8016H108.863V8.14813L105.977 8.55492H105.978Z" fill="#90CAF9"/>
<path d="M101.803 5.51913V34.2847L85.5859 39.8005L104.615 36.3378V4.82321L101.803 5.51913Z" fill="#42A5F5"/>
<path d="M96.7767 3.32045V31.2467L82.6777 39.8005L100.44 33.3188V2.00034L96.7767 3.31932V3.32045Z" fill="#1E88E5"/>
</g>
<defs>
<clipPath id="clip0_44_1229">
<rect width="109" height="40" fill="white"/>
</clipPath>
</defs>
</svg>
