<svg width="262" height="207" viewBox="0 0 262 207" fill="none" xmlns="http://www.w3.org/2000/svg">
<path d="M217.918 15.9515C196.717 6.06297 171.319 3.0871 148.393 9.7022C127.643 15.6973 110.744 29.8947 93.8819 42.7715C76.6428 55.9273 55.355 64.8115 40.2175 80.4781C19.4428 102.016 15.1778 135.718 29.5056 161.942C44.229 188.936 73.8984 200.963 103.005 204.534C140.871 209.153 186.988 205.08 215.613 177.342C230.379 163.034 241.468 145.216 249.275 126.251C257.193 106.994 264.215 87.9984 259.665 66.8078C254.702 43.6952 238.983 25.7905 217.918 15.9515Z" fill="#1565C0"/>
<path opacity="0.7" d="M217.918 15.9515C196.717 6.06297 171.319 3.0871 148.393 9.7022C127.643 15.6973 110.744 29.8947 93.8819 42.7715C76.6428 55.9273 55.355 64.8115 40.2175 80.4781C19.4428 102.016 15.1778 135.718 29.5056 161.942C44.229 188.936 73.8984 200.963 103.005 204.534C140.871 209.153 186.988 205.08 215.613 177.342C230.379 163.034 241.468 145.216 249.275 126.251C257.193 106.994 264.215 87.9984 259.665 66.8078C254.702 43.6952 238.983 25.7905 217.918 15.9515Z" fill="#1565C0"/>
<path d="M260.757 144.954L260.838 147.266L260.175 155.112L122.706 194L1.00052 46.7139L2.08298 34.0413L30.1314 33.375L260.757 144.954Z" fill="#42A5F5"/>
<path d="M2.50159 33.6607L134.964 1L260.756 144.955L125.98 183.041L2.50159 33.6607Z" fill="white" stroke="#263238" stroke-linecap="round" stroke-linejoin="round"/>
<path d="M2.50228 33.6606L1.35219 47.1492L122.706 194L125.98 183.04" stroke="#263238" stroke-linecap="round" stroke-linejoin="round"/>
<path d="M122.706 194L260.175 155.112L261 145.322" stroke="#263238" stroke-linecap="round" stroke-linejoin="round"/>
<path d="M124.369 188.425L239.635 155.887" stroke="#263238" stroke-linecap="round" stroke-linejoin="round"/>
<path d="M2.05655 43.1379L66.8535 118.875" stroke="#263238" stroke-linecap="round" stroke-linejoin="round"/>
<path d="M74.1868 125.946L124.547 186.386" stroke="#263238" stroke-linecap="round" stroke-linejoin="round"/>
<path d="M143.922 32.3961C141.825 36.2033 136.318 37.1687 131.623 34.5445C126.928 31.9202 124.858 26.7124 126.955 22.9052C129.052 19.098 134.572 18.1461 139.267 20.7704C143.962 23.3947 146.033 28.6025 143.922 32.3961Z" stroke="#263238" stroke-miterlimit="10"/>
<path d="M37.4774 60.3521L123.463 36.5024" stroke="#263238" stroke-linecap="round" stroke-linejoin="round"/>
<path d="M34.6494 56.9664L120.648 33.1304" stroke="#263238" stroke-linecap="round" stroke-linejoin="round"/>
<path d="M168.627 60.1754C166.517 63.9826 161.01 64.948 156.328 62.3238C151.647 59.6995 149.563 54.4917 151.66 50.6845C153.758 46.8773 159.278 45.9254 163.959 48.5497C168.641 51.174 170.738 56.3817 168.627 60.1754Z" stroke="#263238" stroke-miterlimit="10"/>
<path d="M55.9475 85.7656L140.756 62.2559" stroke="#263238" stroke-linecap="round" stroke-linejoin="round"/>
<path d="M53.0246 82.4207L137.928 58.8838" stroke="#263238" stroke-linecap="round" stroke-linejoin="round"/>
<path d="M74.1859 105.577L161.619 81.3193" stroke="#263238" stroke-linecap="round" stroke-linejoin="round"/>
<path d="M71.3037 102.218L158.805 77.947" stroke="#263238" stroke-linecap="round" stroke-linejoin="round"/>
<path d="M183.119 92.9586C178.432 90.3347 176.342 85.123 178.451 81.318C180.561 77.513 186.07 76.5555 190.757 79.1794C195.444 81.8033 197.534 87.015 195.425 90.82C193.316 94.625 187.806 95.5825 183.119 92.9586Z" stroke="#263238" stroke-miterlimit="10"/>
<path d="M93.9402 128.407L181.414 104.163" stroke="#263238" stroke-linecap="round" stroke-linejoin="round"/>
<path d="M91.1797 125.021L178.586 100.791" stroke="#263238" stroke-linecap="round" stroke-linejoin="round"/>
<path d="M224.021 123.634C221.924 127.428 216.404 128.393 211.722 125.769C207.041 123.145 204.957 117.937 207.054 114.13C209.152 110.322 214.672 109.371 219.367 111.995C224.062 114.619 226.132 119.84 224.021 123.634Z" stroke="#263238" stroke-miterlimit="10"/>
<path d="M118.038 156.757L204.023 132.907" stroke="#263238" stroke-linecap="round" stroke-linejoin="round"/>
<path d="M115.21 153.371L201.195 129.535" stroke="#263238" stroke-linecap="round" stroke-linejoin="round"/>
<path d="M138.361 22.3886C138.361 22.3886 139.213 30.6557 137.495 31.7027C135.114 29.3232 123.261 18.5405 123.261 18.5405" stroke="#42A5F5" stroke-width="3" stroke-linecap="round" stroke-linejoin="round"/>
<path d="M188.694 83.1275C188.694 83.1275 190.358 91.2859 188.694 92.496C186.083 90.3613 173.215 80.8159 173.215 80.8159" stroke="#42A5F5" stroke-width="3" stroke-linecap="round" stroke-linejoin="round"/>
<path d="M157.372 65.8319L162.459 44.6201" stroke="#263238" stroke-width="3" stroke-linecap="round" stroke-linejoin="round"/>
<path d="M211.411 130.093L216.498 108.881" stroke="#263238" stroke-width="3" stroke-linecap="round" stroke-linejoin="round"/>
<path d="M170.738 62.2557L150.93 48.4272" stroke="#263238" stroke-width="3" stroke-linecap="round" stroke-linejoin="round"/>
<path d="M226.402 125.796L206.594 111.968" stroke="#263238" stroke-width="3" stroke-linecap="round" stroke-linejoin="round"/>
</svg>
