<svg width="145" height="243" viewBox="0 0 145 243" fill="none" xmlns="http://www.w3.org/2000/svg">
<path d="M28.0655 242.278H130.497C132.392 242.295 134.269 241.92 136.012 241.177C137.755 240.434 139.325 239.337 140.623 237.958C141.922 236.578 142.921 234.945 143.557 233.16C144.194 231.376 144.454 229.479 144.322 227.589L131.874 14.6892C131.59 10.7375 129.834 7.03602 126.953 4.31633C124.072 1.59665 120.276 0.0566212 116.314 0.00058538H13.8592C11.9647 -0.0169077 10.087 0.357838 8.34435 1.10125C6.60167 1.84467 5.03168 2.94067 3.73315 4.32031C2.43463 5.69995 1.43565 7.33338 0.799057 9.11785C0.162476 10.9023 -0.0979462 12.7992 0.0341644 14.6892L12.5211 227.589C12.8048 231.538 14.5586 235.237 17.4364 237.957C20.3141 240.676 24.1067 242.218 28.0655 242.278Z" fill="#407BFF"/>
<path opacity="0.8" d="M28.0655 242.278H130.497C132.392 242.295 134.269 241.92 136.012 241.177C137.755 240.434 139.325 239.337 140.623 237.958C141.922 236.578 142.921 234.945 143.557 233.16C144.194 231.376 144.454 229.479 144.322 227.589L131.874 14.6892C131.59 10.7375 129.834 7.03602 126.953 4.31633C124.072 1.59665 120.276 0.0566212 116.314 0.00058538H13.8592C11.9647 -0.0169077 10.087 0.357838 8.34435 1.10125C6.60167 1.84467 5.03168 2.94067 3.73315 4.32031C2.43463 5.69995 1.43565 7.33338 0.799057 9.11785C0.162476 10.9023 -0.0979462 12.7992 0.0341644 14.6892L12.5211 227.589C12.8048 231.538 14.5586 235.237 17.4364 237.957C20.3141 240.676 24.1067 242.218 28.0655 242.278Z" fill="white"/>
<path d="M28.6716 238.014H128.256C129.587 238.027 130.906 237.764 132.131 237.242C133.355 236.721 134.459 235.951 135.371 234.982C136.284 234.013 136.986 232.866 137.434 231.612C137.882 230.358 138.065 229.026 137.973 227.698L125.525 15.7239C125.325 12.9541 124.097 10.3591 122.082 8.44877C120.066 6.53843 117.409 5.45087 114.633 5.39979H15.0488C13.7174 5.388 12.3979 5.65174 11.1732 6.17443C9.94862 6.69712 8.84535 7.46746 7.93275 8.43704C7.02016 9.40663 6.31798 10.5545 5.87035 11.8085C5.42271 13.0625 5.2393 14.3955 5.33162 15.7239L17.7796 227.698C17.9793 230.467 19.2077 233.061 21.2233 234.97C23.2389 236.879 25.8959 237.965 28.6716 238.014Z" fill="#407BFF"/>
<path d="M29.7459 236.878H129.33C130.661 236.89 131.981 236.626 133.205 236.104C134.43 235.581 135.533 234.811 136.446 233.841C137.359 232.871 138.061 231.724 138.508 230.47C138.956 229.216 139.139 227.882 139.047 226.554L126.599 14.5803C126.4 11.8105 125.171 9.21555 123.156 7.30521C121.141 5.39488 118.484 4.30732 115.707 4.25624H16.1231C14.7916 4.24445 13.4721 4.50819 12.2475 5.03088C11.0229 5.55357 9.91959 6.32391 9.00699 7.29349C8.09441 8.26307 7.39223 9.41094 6.9446 10.6649C6.49695 11.919 6.31354 13.252 6.40587 14.5803L18.8539 226.554C19.0534 229.324 20.2816 231.919 22.297 233.829C24.3124 235.74 26.9694 236.827 29.7459 236.878Z" fill="white"/>
<path opacity="0.1" d="M32.6566 228.997H125.526C126.349 229.005 127.165 228.842 127.922 228.519C128.678 228.196 129.36 227.72 129.924 227.121C130.488 226.522 130.922 225.812 131.199 225.038C131.476 224.263 131.589 223.439 131.533 222.618L126.304 134.198C126.182 132.482 125.42 130.875 124.17 129.694C122.919 128.513 121.271 127.843 119.551 127.819H26.7204C25.8976 127.811 25.0821 127.974 24.3253 128.297C23.5685 128.62 22.8866 129.096 22.3225 129.695C21.7585 130.294 21.3244 131.004 21.0476 131.779C20.7709 132.554 20.6574 133.377 20.7143 134.198L25.9035 222.618C26.0261 224.334 26.7878 225.941 28.0382 227.122C29.2886 228.303 30.9366 228.973 32.6566 228.997Z" fill="#407BFF"/>
<path opacity="0.1" d="M53.281 19.9796H80.3476C80.6417 19.9825 80.9332 19.9244 81.2039 19.8091C81.4745 19.6938 81.7183 19.5238 81.92 19.3097C82.1217 19.0956 82.2769 18.842 82.3758 18.565C82.4747 18.288 82.5153 17.9935 82.4949 17.7001C82.452 17.0848 82.1794 16.5082 81.7312 16.0845C81.283 15.6608 80.692 15.421 80.0753 15.4128H53.0164C52.719 15.4054 52.4233 15.4605 52.1484 15.5743C51.8736 15.6881 51.6256 15.8582 51.4204 16.0737C51.2152 16.2891 51.0574 16.5451 50.9571 16.8252C50.8568 17.1054 50.8162 17.4034 50.838 17.7001C50.8813 18.3186 51.1575 18.8977 51.6108 19.3207C52.0641 19.7437 52.6609 19.9792 53.281 19.9796Z" fill="#407BFF"/>
<path opacity="0.1" d="M42.5128 105.317C25.8458 89.1321 24.7079 63.2696 39.9713 47.552C55.2347 31.8343 81.1194 32.2135 97.7865 48.3989C114.454 64.5842 115.591 90.4467 100.328 106.164C85.0646 121.882 59.1799 121.503 42.5128 105.317Z" fill="#407BFF"/>
<path d="M98.7618 103.918C102.167 100.292 104.787 96.002 106.456 91.3162C108.126 86.6304 108.809 81.6503 108.463 76.688H107.685C108.022 81.5436 107.353 86.4166 105.72 91.0017C104.087 95.5868 101.525 99.7854 98.1938 103.334L98.7618 103.918Z" fill="#407BFF"/>
<path d="M27.1401 14.9927H16.1781C15.8787 14.9877 15.592 14.8706 15.3745 14.6647C15.1571 14.4588 15.0247 14.1789 15.0033 13.8802C14.9936 13.7379 15.0135 13.5951 15.0617 13.4608C15.1098 13.3266 15.1852 13.2037 15.2831 13.1C15.381 12.9962 15.4993 12.9138 15.6305 12.858C15.7618 12.8021 15.9032 12.774 16.0458 12.7754H27.0156C27.3138 12.7803 27.5995 12.8963 27.8167 13.1006C28.034 13.3049 28.1672 13.5829 28.1904 13.8802C28.2013 14.0238 28.182 14.1681 28.1339 14.3038C28.0858 14.4396 28.0099 14.5638 27.911 14.6685C27.8122 14.7732 27.6925 14.8561 27.5598 14.912C27.427 14.9678 27.2841 14.9953 27.1401 14.9927Z" fill="#407BFF"/>
<path d="M27.3658 18.813H16.4038C16.1044 18.808 15.8177 18.6909 15.6003 18.485C15.3828 18.2791 15.2504 17.9992 15.229 17.7005C15.2183 17.5575 15.2373 17.4139 15.2849 17.2787C15.3326 17.1435 15.4078 17.0197 15.5058 16.9151C15.6038 16.8105 15.7225 16.7274 15.8543 16.6711C15.9861 16.6148 16.1282 16.5865 16.2716 16.5879H27.2336C27.5344 16.5911 27.8229 16.7073 28.042 16.9134C28.2611 17.1195 28.3947 17.4005 28.4161 17.7005C28.4246 17.8436 28.4037 17.9869 28.3548 18.1216C28.3058 18.2563 28.2298 18.3795 28.1314 18.4837C28.033 18.588 27.9143 18.6709 27.7827 18.7276C27.651 18.7842 27.5091 18.8133 27.3658 18.813Z" fill="#407BFF"/>
<path d="M116.049 18.813H105.087C104.787 18.8081 104.499 18.6913 104.28 18.4856C104.062 18.2798 103.928 17.9999 103.904 17.7005C103.895 17.5571 103.915 17.4134 103.963 17.2781C104.012 17.1429 104.088 17.0192 104.186 16.9147C104.285 16.8103 104.404 16.7273 104.536 16.6711C104.669 16.6149 104.811 16.5865 104.955 16.5879H115.917C116.217 16.5912 116.504 16.7076 116.722 16.9139C116.94 17.1202 117.072 17.4011 117.091 17.7005C117.101 17.8432 117.081 17.9863 117.033 18.121C116.985 18.2556 116.91 18.379 116.812 18.4833C116.714 18.5877 116.596 18.6708 116.465 18.7275C116.333 18.7842 116.192 18.8133 116.049 18.813Z" fill="#407BFF"/>
<path d="M27.5919 22.625H16.6065C16.3057 22.6218 16.0171 22.5057 15.7981 22.2996C15.579 22.0935 15.4454 21.8125 15.424 21.5124C15.4155 21.3694 15.4363 21.2261 15.4853 21.0914C15.5343 20.9567 15.6103 20.8334 15.7087 20.7292C15.8071 20.625 15.9258 20.542 16.0574 20.4854C16.1891 20.4287 16.3309 20.3997 16.4742 20.3999H27.4596C27.7599 20.4048 28.0475 20.5216 28.2662 20.7273C28.4849 20.9331 28.619 21.2131 28.6422 21.5124C28.6518 21.6558 28.6318 21.7996 28.5832 21.9348C28.5347 22.07 28.4587 22.1937 28.3601 22.2982C28.2615 22.4026 28.1423 22.4856 28.0101 22.5418C27.8779 22.5981 27.7355 22.6264 27.5919 22.625Z" fill="#407BFF"/>
<path d="M42.0002 162.206H108.317C109.555 162.217 110.783 161.973 111.922 161.487C113.062 161.001 114.088 160.285 114.937 159.383C115.786 158.481 116.44 157.414 116.856 156.247C117.273 155.081 117.443 153.841 117.357 152.605C117.171 150.023 116.023 147.605 114.14 145.827C112.258 144.05 109.777 143.043 107.189 143.005H40.8721C39.6336 142.993 38.4061 143.238 37.2668 143.724C36.1275 144.21 35.101 144.926 34.2519 145.828C33.4028 146.729 32.7495 147.797 32.333 148.963C31.9165 150.13 31.7458 151.37 31.8317 152.605C32.0183 155.188 33.1661 157.606 35.0486 159.383C36.9311 161.161 39.4115 162.168 42.0002 162.206Z" fill="white"/>
<path d="M43.5086 188.012H109.833C111.072 188.021 112.299 187.775 113.438 187.288C114.576 186.801 115.602 186.084 116.451 185.182C117.3 184.28 117.953 183.212 118.37 182.046C118.787 180.879 118.958 179.639 118.873 178.404C118.681 175.826 117.531 173.413 115.649 171.64C113.767 169.868 111.29 168.864 108.705 168.827H42.3805C41.142 168.815 39.9145 169.06 38.7752 169.546C37.6359 170.031 36.6094 170.748 35.7603 171.649C34.9113 172.551 34.2579 173.619 33.8414 174.785C33.4249 175.952 33.2543 177.192 33.3402 178.427C33.5322 181.006 34.6822 183.42 36.5639 185.193C38.4457 186.967 40.923 187.973 43.5086 188.012Z" fill="white"/>
<path d="M45.0256 213.811H111.342C112.581 213.822 113.808 213.577 114.948 213.092C116.087 212.606 117.113 211.89 117.962 210.988C118.812 210.086 119.465 209.019 119.881 207.852C120.298 206.686 120.469 205.446 120.383 204.21C120.196 201.627 119.049 199.208 117.166 197.429C115.284 195.651 112.804 194.642 110.214 194.602H43.8975C42.6586 194.591 41.431 194.837 40.2916 195.324C39.1523 195.811 38.1259 196.528 37.277 197.43C36.428 198.332 35.7748 199.4 35.3584 200.567C34.9419 201.734 34.7713 202.974 34.8571 204.21C35.0437 206.792 36.1916 209.211 38.074 210.988C39.9565 212.766 42.4369 213.773 45.0256 213.811Z" fill="white"/>
<path d="M103.164 156.046C101.145 154.086 101.005 150.954 102.852 149.052C104.699 147.151 107.833 147.198 109.852 149.159C111.871 151.12 112.011 154.251 110.164 156.153C108.317 158.055 105.183 158.007 103.164 156.046Z" fill="#407BFF"/>
<path d="M107.095 173.728L106.441 176.194C106.404 176.33 106.322 176.449 106.209 176.533C106.097 176.618 105.96 176.663 105.819 176.661H103.228C103.082 176.662 102.94 176.711 102.825 176.801C102.709 176.89 102.626 177.015 102.588 177.156C102.55 177.297 102.56 177.447 102.615 177.582C102.67 177.718 102.768 177.831 102.894 177.906L105.08 179.462C105.204 179.544 105.299 179.664 105.352 179.803C105.405 179.943 105.413 180.095 105.375 180.24L104.722 182.706C104.683 182.848 104.689 182.998 104.738 183.136C104.788 183.274 104.878 183.394 104.998 183.479C105.118 183.564 105.261 183.61 105.408 183.611C105.555 183.612 105.698 183.567 105.819 183.484L107.826 181.928C107.94 181.848 108.076 181.805 108.215 181.805C108.354 181.805 108.49 181.848 108.604 181.928L110.79 183.484C110.905 183.575 111.047 183.625 111.193 183.626C111.339 183.627 111.482 183.579 111.598 183.489C111.713 183.399 111.796 183.273 111.831 183.131C111.867 182.989 111.854 182.84 111.794 182.706L110.853 180.24C110.795 180.106 110.783 179.957 110.82 179.816C110.857 179.675 110.939 179.55 111.055 179.462L113.062 177.906C113.173 177.811 113.251 177.684 113.287 177.543C113.323 177.402 113.314 177.253 113.262 177.117C113.21 176.98 113.118 176.864 112.997 176.782C112.876 176.701 112.733 176.658 112.587 176.661H109.997C109.85 176.661 109.706 176.616 109.586 176.533C109.465 176.45 109.372 176.331 109.32 176.194L108.41 173.728C108.368 173.586 108.282 173.46 108.163 173.371C108.045 173.282 107.9 173.234 107.752 173.234C107.604 173.234 107.46 173.282 107.341 173.371C107.223 173.46 107.136 173.586 107.095 173.728Z" fill="#407BFF"/>
<path d="M105.298 201.596L105.71 208.52C105.73 208.81 105.858 209.082 106.071 209.282C106.283 209.481 106.563 209.592 106.854 209.594H112.914C113.048 209.586 113.179 209.551 113.3 209.492C113.42 209.432 113.527 209.35 113.615 209.248C113.703 209.146 113.769 209.028 113.811 208.901C113.852 208.773 113.867 208.638 113.856 208.504L113.35 199.884C113.332 199.594 113.205 199.321 112.995 199.12C112.784 198.92 112.505 198.806 112.214 198.803H107.857L105.298 201.596Z" fill="#407BFF"/>
<path d="M107.896 198.818L105.274 201.596H106.978C107.116 201.597 107.253 201.57 107.381 201.516C107.508 201.461 107.623 201.381 107.718 201.28C107.813 201.179 107.886 201.06 107.933 200.929C107.98 200.799 107.999 200.66 107.989 200.522L107.896 198.818ZM108.588 196.912L108.697 198.772L108.798 200.475C108.812 200.724 108.775 200.972 108.691 201.206C108.607 201.44 108.476 201.654 108.308 201.837C108.137 202.017 107.93 202.161 107.702 202.259C107.473 202.356 107.226 202.406 106.978 202.405H103.414L104.69 201.043L107.304 198.266L108.588 196.912Z" fill="white"/>
<path opacity="0.2" d="M44.2242 151.586H93.8528C94.0536 151.588 94.2526 151.548 94.4374 151.469C94.6221 151.39 94.7887 151.274 94.9266 151.128C95.0646 150.982 95.171 150.809 95.2392 150.62C95.3074 150.432 95.336 150.231 95.3232 150.03C95.2903 149.611 95.1022 149.219 94.7957 148.931C94.4893 148.644 94.0864 148.481 93.666 148.474H44.0452C43.8444 148.473 43.6454 148.513 43.4606 148.591C43.2759 148.67 43.1093 148.786 42.9714 148.932C42.8334 149.078 42.727 149.251 42.6588 149.44C42.5906 149.629 42.562 149.83 42.5748 150.03C42.6058 150.449 42.7923 150.84 43.0975 151.128C43.4027 151.416 43.8046 151.58 44.2242 151.586Z" fill="#407BFF"/>
<path opacity="0.2" d="M53.63 156.752H94.1482C94.3494 156.753 94.5487 156.713 94.7338 156.635C94.919 156.556 95.086 156.44 95.2245 156.294C95.3631 156.148 95.4702 155.976 95.5394 155.787C95.6085 155.598 95.6381 155.397 95.6264 155.196C95.5935 154.777 95.4054 154.385 95.0989 154.097C94.7925 153.809 94.3896 153.646 93.9693 153.64H53.451C53.2495 153.637 53.0497 153.676 52.864 153.755C52.6783 153.833 52.5108 153.949 52.3721 154.095C52.2333 154.241 52.1262 154.414 52.0575 154.604C51.9888 154.793 51.9599 154.995 51.9728 155.196C52.0074 155.614 52.196 156.005 52.5021 156.292C52.8083 156.58 53.2101 156.744 53.63 156.752Z" fill="#407BFF"/>
<path opacity="0.2" d="M45.858 179.423H59.5508C59.9717 179.428 60.3756 179.59 60.6824 179.878C60.9893 180.166 61.1768 180.559 61.208 180.979C61.2208 181.179 61.1922 181.38 61.124 181.569C61.0557 181.758 60.9493 181.931 60.8114 182.077C60.6734 182.223 60.5069 182.339 60.3221 182.418C60.1374 182.496 59.9384 182.536 59.7375 182.535H46.0447C45.6238 182.53 45.22 182.368 44.9132 182.08C44.6063 181.791 44.4187 181.399 44.3876 180.979C44.3748 180.778 44.4034 180.578 44.4716 180.389C44.5398 180.2 44.6462 180.027 44.7842 179.881C44.9221 179.735 45.0887 179.619 45.2734 179.54C45.4582 179.461 45.6572 179.421 45.858 179.423Z" fill="#407BFF"/>
<path opacity="0.2" d="M67.5575 179.423H95.48C95.9009 179.428 96.3047 179.59 96.6115 179.878C96.9184 180.166 97.1059 180.559 97.1371 180.979C97.1511 181.18 97.1233 181.381 97.0555 181.571C96.9877 181.76 96.8814 181.933 96.7432 182.079C96.605 182.226 96.438 182.342 96.2527 182.42C96.0674 182.499 95.8679 182.538 95.6667 182.535H67.7365C67.3161 182.529 66.9133 182.365 66.6068 182.078C66.3003 181.79 66.1122 181.398 66.0793 180.979C66.0665 180.778 66.0953 180.576 66.164 180.387C66.2327 180.197 66.3398 180.024 66.4786 179.878C66.6174 179.732 66.7848 179.616 66.9705 179.538C67.1562 179.46 67.356 179.42 67.5575 179.423Z" fill="#407BFF"/>
<path opacity="0.2" d="M54.6576 174.272H95.1836C95.6045 174.277 96.0083 174.44 96.3152 174.728C96.6221 175.016 96.8096 175.409 96.8408 175.828C96.8536 176.029 96.825 176.23 96.7568 176.419C96.6885 176.608 96.5821 176.78 96.4442 176.926C96.3062 177.072 96.1397 177.188 95.9549 177.267C95.7702 177.346 95.5712 177.386 95.3703 177.384H54.8521C54.4317 177.378 54.0289 177.215 53.7224 176.927C53.4159 176.639 53.2278 176.248 53.195 175.828C53.1822 175.629 53.2106 175.428 53.2783 175.24C53.3461 175.052 53.4518 174.879 53.5889 174.733C53.726 174.587 53.8916 174.471 54.0754 174.392C54.2593 174.313 54.4574 174.272 54.6576 174.272Z" fill="#407BFF"/>
<path opacity="0.2" d="M47.3753 205.222H96.9961C97.416 205.23 97.8178 205.394 98.1239 205.681C98.4301 205.968 98.6187 206.359 98.6533 206.778C98.6661 206.979 98.6373 207.18 98.5686 207.37C98.4999 207.559 98.3928 207.732 98.254 207.879C98.1152 208.025 97.9477 208.141 97.7621 208.219C97.5764 208.297 97.3765 208.336 97.1751 208.334H47.5542C47.1347 208.327 46.7328 208.164 46.4276 207.876C46.1223 207.588 45.9359 207.196 45.9049 206.778C45.892 206.577 45.9206 206.376 45.9889 206.187C46.0571 205.999 46.1635 205.826 46.3015 205.68C46.4394 205.534 46.6059 205.418 46.7907 205.339C46.9754 205.26 47.1744 205.22 47.3753 205.222Z" fill="#407BFF"/>
<path opacity="0.2" d="M56.1751 200.064H96.6934C97.1138 200.07 97.5166 200.233 97.8231 200.521C98.1295 200.809 98.3176 201.2 98.3505 201.62C98.3634 201.82 98.3348 202.021 98.2665 202.21C98.1983 202.399 98.0919 202.572 97.9539 202.718C97.816 202.864 97.6494 202.98 97.4647 203.058C97.2799 203.137 97.0809 203.177 96.8801 203.176H56.3541C55.9345 203.169 55.5326 203.006 55.2274 202.718C54.9222 202.43 54.7358 202.038 54.7047 201.62C54.6919 201.419 54.7205 201.218 54.7887 201.029C54.857 200.84 54.9634 200.668 55.1013 200.522C55.2393 200.376 55.4058 200.26 55.5906 200.181C55.7753 200.102 55.9743 200.062 56.1751 200.064Z" fill="#407BFF"/>
</svg>
