<svg width="23" height="23" viewBox="0 0 23 23" fill="none" xmlns="http://www.w3.org/2000/svg">
<path d="M22.1086 10.7936C22.0801 10.3246 21.999 9.85537 21.896 9.39515C21.6244 8.15281 21.1225 6.96442 20.4389 5.89246C18.8963 3.4659 16.3634 1.68463 13.5463 1.09262C13.133 0.996664 12.7135 0.929989 12.2909 0.893097C11.7349 0.832485 11.1748 0.820014 10.6168 0.855823C10.1612 0.872037 9.70761 0.924829 9.26047 1.01369C8.85061 1.0707 8.45192 1.18471 8.05498 1.29193C7.68457 1.40814 7.31657 1.5397 6.95711 1.69099C6.61415 1.8342 6.27919 1.99588 5.95371 2.17533C5.63106 2.34943 5.31865 2.54189 5.01803 2.75177C4.94379 2.8063 4.86619 2.8561 4.7857 2.90087C4.03632 2.33079 3.27818 1.77431 2.48935 1.26146C2.27258 1.12771 2.06217 0.976416 1.81888 0.89529C1.42019 0.754963 0.953559 0.862401 0.640132 1.14744C0.341828 1.41209 0.212731 1.8243 0.2478 2.21655C0.249992 2.73818 0.245608 3.26221 0.252183 3.78383C0.245608 4.31005 0.249992 4.84023 0.2478 5.36645C0.245608 5.89268 0.245608 6.4189 0.249992 6.94513C0.245608 7.55906 0.245608 8.17204 0.249992 8.78407C0.245608 9.38016 0.246339 9.97633 0.252183 10.5726C0.256567 11.3181 0.217115 12.0675 0.300184 12.8106C0.359362 13.5756 0.517172 14.334 0.745119 15.0639C1.78359 18.4592 4.58603 21.269 7.99559 22.2622L7.99778 22.2754C8.7077 22.4859 9.43735 22.6416 10.1736 22.6983C10.9907 22.7773 11.819 22.7751 12.6319 22.6503C13.0681 22.6174 13.4952 22.51 13.9224 22.4157C14.4128 22.2852 14.8947 22.1248 15.3655 21.9353C15.8061 21.7468 16.2422 21.5428 16.6563 21.2973C17.024 21.0891 17.3782 20.8577 17.7166 20.6046C18.1124 20.3126 18.4879 19.9941 18.8406 19.6513C19.1123 19.3874 19.3698 19.1093 19.6119 18.8181C19.8498 18.5342 20.0731 18.2384 20.2811 17.9318C20.4695 17.6514 20.6449 17.3598 20.8137 17.066C20.9866 16.7329 21.1532 16.3996 21.3022 16.0556C21.4644 15.6434 21.6244 15.2292 21.7382 14.8019C21.8346 14.4511 21.9398 14.1003 21.9749 13.7387C22.0669 13.3574 22.1086 12.9562 22.1239 12.5661C22.1768 11.9762 22.1717 11.3825 22.1086 10.7936ZM18.0945 9.35568C17.9608 9.71088 17.7263 10.0154 17.4479 10.2698C17.2049 10.511 16.9638 10.7541 16.7205 10.9975C16.4621 11.256 16.2034 11.5125 15.9472 11.7735C15.6995 12.0188 15.4519 12.2644 15.2044 12.5143C14.9348 12.7838 14.663 13.0535 14.3959 13.3232C14.089 13.6321 13.7802 13.9371 13.4733 14.2458C13.184 14.5375 12.8927 14.8267 12.6012 15.1183C12.3097 15.4099 12.014 15.7035 11.7225 15.9973C11.4531 16.2558 11.2077 16.543 10.9032 16.7647C10.5232 17.0022 10.0824 17.1241 9.63439 17.1155C9.11735 17.0826 8.61126 16.8789 8.23866 16.515C7.09278 15.3687 5.94611 14.2212 4.79863 13.0726C4.5183 12.7941 4.3298 12.4348 4.22876 12.0554C4.12356 11.5316 4.18493 10.9705 4.45452 10.5037C4.66033 10.1419 4.97595 9.85472 5.33518 9.64861C5.73035 9.46176 6.16955 9.38814 6.60401 9.43593C7.07284 9.50609 7.52194 9.72097 7.85071 10.0672C8.47296 10.6897 9.09302 11.3143 9.71965 11.9348C9.90815 11.755 10.0901 11.5665 10.2698 11.3801C10.5328 11.1282 10.7912 10.8695 11.0431 10.6041C11.2929 10.372 11.5318 10.1264 11.7683 9.87861C11.9371 9.72754 12.0905 9.56091 12.2527 9.40085C12.5157 9.14431 12.772 8.88361 13.0284 8.62269C13.2758 8.38611 13.5148 8.14032 13.7537 7.89913C14.0121 7.6472 14.2641 7.38847 14.5208 7.13413C14.779 6.87103 15.0958 6.67276 15.4453 6.5555C15.8938 6.43038 16.3694 6.44067 16.8121 6.5851C17.3754 6.79998 17.8267 7.24288 18.0743 7.7884C18.2565 8.29051 18.2784 8.8516 18.0945 9.35568Z" fill="#686868" fill-opacity="0.8"/>
</svg>
