<svg width="26" height="26" viewBox="0 0 26 26" fill="none" xmlns="http://www.w3.org/2000/svg">
<path d="M21.6243 20.7778C20.5399 20.7778 19.6607 21.6483 19.6607 22.7222C19.6607 23.7961 20.5399 24.6667 21.6243 24.6667C22.7088 24.6667 23.5879 23.7961 23.5879 22.7222C23.5879 21.6483 22.7088 20.7778 21.6243 20.7778ZM21.6243 20.7778H9.5984C8.61425 20.7778 7.78212 20.0563 7.65205 19.0903L5.48836 3.0208C5.35829 2.05479 4.52615 1.33334 3.542 1.33334H1.33398M5.91567 5.87038L22.5014 4.17133C23.7382 4.04464 24.781 5.07376 24.6573 6.29894L23.8826 13.9706C23.7153 15.6273 22.3075 16.8889 20.6262 16.8889H7.87926M14.4245 9.75927L20.3153 9.11112M10.4974 22.7222C10.4974 23.7961 9.61824 24.6667 8.53378 24.6667C7.44933 24.6667 6.5702 23.7961 6.5702 22.7222C6.5702 21.6483 7.44933 20.7778 8.53378 20.7778C9.61824 20.7778 10.4974 21.6483 10.4974 22.7222Z" stroke="#1565C0" stroke-width="1.5" stroke-linecap="round"/>
</svg>
