<svg width="28" height="28" viewBox="0 0 28 28" fill="none" xmlns="http://www.w3.org/2000/svg">
<path d="M7.17897 3.18359H3.54523C2.87628 3.18359 2.33398 3.71041 2.33398 4.36028V7.29192H14.4464V4.36028C14.4464 3.71041 13.9042 3.18359 13.2352 3.18359H9.60146C8.93251 3.18359 8.39022 3.71041 8.39022 4.36028C8.39022 3.71041 7.84792 3.18359 7.17897 3.18359Z" fill="#1565C0"/>
<path d="M14.4464 9.04192H2.33398V18.9586H14.4464V9.04192Z" fill="#1565C0"/>
<path d="M14.4464 20.7086H2.33398V23.1872C2.33398 23.8371 2.87628 24.3639 3.54523 24.3639H7.17897C7.84792 24.3639 8.39022 23.8371 8.39022 23.1872C8.39022 23.8371 8.93251 24.3639 9.60146 24.3639H13.2352C13.9042 24.3639 14.4464 23.8371 14.4464 23.1872V20.7086Z" fill="#1565C0"/>
<g opacity="0.4">
<path d="M15.4195 3.28704L18.9295 2.37339C19.5756 2.2052 20.2398 2.57771 20.4129 3.20544L21.1338 5.81887L15.3544 7.59714L14.5631 4.72818C14.3899 4.10046 14.7734 3.45524 15.4195 3.28704Z" fill="#1565C0"/>
<path d="M15.8199 9.28487L18.6583 19.5756L24.4577 17.8699L21.5993 7.5066L15.8199 9.28487Z" fill="#1565C0"/>
<path d="M24.923 19.5571L19.1236 21.2628L19.7758 23.6272C19.9489 24.255 20.6131 24.6275 21.2593 24.4593L24.7692 23.5456C25.4153 23.3774 25.7988 22.7322 25.6257 22.1045L24.923 19.5571Z" fill="#1565C0"/>
</g>
</svg>
