<svg width="18" height="20" viewBox="0 0 18 20" fill="none" xmlns="http://www.w3.org/2000/svg">
<path fill-rule="evenodd" clip-rule="evenodd" d="M5.30769 0C5.69004 0 6 0.312359 6 0.697674V1.43113H12V0.697674C12 0.312359 12.31 0 12.6923 0C13.0747 0 13.3846 0.312359 13.3846 0.697674V1.43157C13.9197 1.43315 14.3715 1.44029 14.7536 1.47256C15.2596 1.51529 15.7047 1.60568 16.1163 1.82244C16.769 2.16616 17.2964 2.71286 17.6259 3.38122C17.8326 3.80052 17.9191 4.25402 17.9601 4.77308C18 5.27817 18 5.90245 18 6.6791V14.752C18 15.5287 18 16.153 17.9601 16.658C17.9191 17.1771 17.8326 17.6306 17.6259 18.0499C17.2964 18.7183 16.769 19.265 16.1163 19.6087C15.7047 19.8254 15.2596 19.9158 14.7536 19.9586C14.2628 20 13.6569 20 12.9072 20H5.09276C4.34302 20 3.73723 20 3.24644 19.9586C2.74044 19.9158 2.29526 19.8254 1.88369 19.6087C1.23101 19.265 0.703601 18.7183 0.374123 18.0499C0.167421 17.6306 0.0809459 17.1771 0.0399152 16.658C-1.0832e-05 16.153 -5.93953e-06 15.5287 1.49854e-07 14.752V6.67912C-5.93953e-06 5.90245 -1.08354e-05 5.27817 0.0399152 4.77308C0.0809459 4.25402 0.167421 3.80052 0.374123 3.38122C0.703601 2.71286 1.23101 2.16616 1.88369 1.82244C2.29526 1.60568 2.74044 1.51529 3.24644 1.47256C3.62851 1.44029 4.08027 1.43315 4.61539 1.43157V0.697674C4.61539 0.312359 4.92534 0 5.30769 0ZM4.61539 2.82699C4.08984 2.82862 3.68998 2.83534 3.36206 2.86303C2.94451 2.8983 2.70578 2.96389 2.52498 3.0591C2.13553 3.2642 1.81566 3.59325 1.61415 4.00202C1.51902 4.19499 1.45458 4.44837 1.42016 4.88389C1.38513 5.32704 1.38462 5.89567 1.38462 6.70841V6.89922H16.6154V6.70841C16.6154 5.89567 16.6149 5.32704 16.5798 4.88389C16.5454 4.44837 16.481 4.19499 16.3859 4.00202C16.1843 3.59325 15.8645 3.2642 15.475 3.0591C15.2942 2.96389 15.0555 2.8983 14.6379 2.86303C14.31 2.83534 13.9102 2.82862 13.3846 2.82699V3.55993C13.3846 3.94524 13.0747 4.2576 12.6923 4.2576C12.31 4.2576 12 3.94524 12 3.55993V2.82648H6V3.55993C6 3.94524 5.69004 4.2576 5.30769 4.2576C4.92534 4.2576 4.61539 3.94524 4.61539 3.55993V2.82699Z" fill="white"/>
</svg>
