<svg width="28" height="28" viewBox="0 0 28 28" fill="none" xmlns="http://www.w3.org/2000/svg">
<path d="M7.16236 2.93543L10.9427 8.09041C11.3277 8.61549 11.1968 9.35569 10.6551 9.71687C9.39035 10.56 8.87519 12.1347 9.73452 13.3885C10.2525 14.1443 10.9731 15.0493 11.9621 16.0383L9.56449 18.4358C5.82752 14.6989 3.86696 11.914 2.84378 10.0886C1.95187 8.49743 2.30639 6.6503 3.31823 5.13255L4.74694 2.98948C5.31487 2.13759 6.5569 2.10979 7.16236 2.93543Z" fill="#1565C0"/>
<path d="M25.0649 20.8378L19.9099 17.0575C19.3848 16.6724 18.6446 16.8033 18.2834 17.3451C17.4403 18.6098 15.8656 19.125 14.6118 18.2656C13.856 17.7476 12.951 17.027 11.962 16.0381L9.56445 18.4357C13.3014 22.1726 16.0863 24.1332 17.9117 25.1564C19.5029 26.0483 21.35 25.6938 22.8677 24.6819L25.0108 23.2532C25.8627 22.6853 25.8905 21.4433 25.0649 20.8378Z" fill="#1565C0"/>
</svg>
