<svg width="16" height="16" viewBox="0 0 16 16" fill="none" xmlns="http://www.w3.org/2000/svg">
<path d="M7.99967 15.1667C4.04634 15.1667 0.833008 11.9534 0.833008 8.00004C0.833008 4.04671 4.04634 0.833374 7.99967 0.833374C11.953 0.833374 15.1663 4.04671 15.1663 8.00004C15.1663 11.9534 11.953 15.1667 7.99967 15.1667ZM7.99967 1.83337C4.59967 1.83337 1.83301 4.60004 1.83301 8.00004C1.83301 11.4 4.59967 14.1667 7.99967 14.1667C11.3997 14.1667 14.1663 11.4 14.1663 8.00004C14.1663 4.60004 11.3997 1.83337 7.99967 1.83337Z" fill="#6D6D74"/>
<path d="M10.4741 10.62C10.3874 10.62 10.3007 10.6 10.2207 10.5467L8.15408 9.31338C7.64074 9.00671 7.26074 8.33338 7.26074 7.74005V5.00671C7.26074 4.73338 7.48741 4.50671 7.76074 4.50671C8.03408 4.50671 8.26074 4.73338 8.26074 5.00671V7.74005C8.26074 7.98005 8.46074 8.33338 8.66741 8.45338L10.7341 9.68671C10.9741 9.82671 11.0474 10.1334 10.9074 10.3734C10.8074 10.5334 10.6407 10.62 10.4741 10.62Z" fill="#6D6D74"/>
</svg>
