<svg width="1" height="44" viewBox="0 0 1 44" fill="none" xmlns="http://www.w3.org/2000/svg">
<path d="M0.0322896 43.03C0.00934821 42.9955 -0.000143051 42.9589 0.00438315 42.9223V40.3935C0.0127714 40.3259 0.068799 40.2624 0.161132 40.216C0.253465 40.1697 0.375214 40.1439 0.501666 40.1439C0.628118 40.1439 0.749819 40.1697 0.842152 40.216C0.934485 40.2624 0.990513 40.3259 0.998901 40.3935V42.9223C1.00343 42.9589 0.993945 42.9955 0.971004 43.03C0.948063 43.0644 0.91216 43.096 0.865541 43.1227C0.818922 43.1495 0.762564 43.1708 0.699968 43.1854C0.637373 43.1999 0.569897 43.2074 0.501666 43.2074C0.433435 43.2074 0.365911 43.1999 0.303316 43.1854C0.24072 43.1708 0.184362 43.1495 0.137743 43.1227C0.0911237 43.096 0.055231 43.0644 0.0322896 43.03Z" fill="white"/>
<path d="M0.161132 39.5004C0.068799 39.454 0.0127714 39.3906 0.00438315 39.3229V36.7976C-0.000143051 36.7611 0.00934821 36.7245 0.0322896 36.69C0.055231 36.6555 0.0911237 36.6239 0.137743 36.5972C0.184362 36.5705 0.24072 36.5492 0.303316 36.5346C0.365911 36.52 0.433435 36.5125 0.501666 36.5125C0.569897 36.5125 0.637373 36.52 0.699968 36.5346C0.762564 36.5492 0.818922 36.5705 0.865541 36.5972C0.91216 36.6239 0.948063 36.6555 0.971004 36.69C0.993945 36.7245 1.00343 36.7611 0.998901 36.7976V39.3229C0.990513 39.3906 0.934485 39.454 0.842152 39.5004C0.749819 39.5467 0.628118 39.5725 0.501666 39.5725C0.375214 39.5725 0.253465 39.5467 0.161132 39.5004Z" fill="white"/>
<path d="M0.0322896 35.8299C0.00934821 35.7954 -0.000143051 35.7588 0.00438315 35.7223V33.1935C0.0127714 33.1258 0.068799 33.0623 0.161132 33.016C0.253465 32.9696 0.375214 32.9439 0.501666 32.9439C0.628118 32.9439 0.749819 32.9696 0.842152 33.016C0.934485 33.0623 0.990513 33.1258 0.998901 33.1935V35.7223C1.00343 35.7588 0.993945 35.7954 0.971004 35.8299C0.948063 35.8644 0.91216 35.896 0.865541 35.9227C0.818922 35.9494 0.762564 35.9707 0.699968 35.9853C0.637373 35.9999 0.569897 36.0074 0.501666 36.0074C0.433435 36.0074 0.365911 35.9999 0.303316 35.9853C0.24072 35.9707 0.184362 35.9494 0.137743 35.9227C0.0911237 35.896 0.055231 35.8644 0.0322896 35.8299Z" fill="white"/>
<path d="M0.161132 32.3003C0.068799 32.254 0.0127714 32.1905 0.00438315 32.1228V29.594C-0.000143051 29.5575 0.00934821 29.5209 0.0322896 29.4864C0.055231 29.4519 0.0911237 29.4204 0.137743 29.3936C0.184362 29.3669 0.24072 29.3456 0.303316 29.331C0.365911 29.3165 0.433435 29.3089 0.501666 29.3089C0.569897 29.3089 0.637373 29.3165 0.699968 29.331C0.762564 29.3456 0.818922 29.3669 0.865541 29.3936C0.91216 29.4204 0.948063 29.4519 0.971004 29.4864C0.993945 29.5209 1.00343 29.5575 0.998901 29.594V32.1228C0.990513 32.1905 0.934485 32.254 0.842152 32.3003C0.749819 32.3467 0.628118 32.3725 0.501666 32.3725C0.375214 32.3725 0.253465 32.3467 0.161132 32.3003Z" fill="white"/>
<path d="M0.161132 28.6997C0.068799 28.6534 0.0127714 28.5899 0.00438315 28.5222V25.9934C0.0127714 25.9257 0.068799 25.8623 0.161132 25.8159C0.253465 25.7696 0.375214 25.7438 0.501666 25.7438C0.628118 25.7438 0.749819 25.7696 0.842152 25.8159C0.934485 25.8623 0.990513 25.9257 0.998901 25.9934V28.5222C0.990513 28.5899 0.934485 28.6534 0.842152 28.6997C0.749819 28.7461 0.628118 28.7718 0.501666 28.7718C0.375214 28.7718 0.253465 28.7461 0.161132 28.6997Z" fill="white"/>
<path d="M0.0322896 25.0292C0.00934821 24.9948 -0.000143051 24.9581 0.00438315 24.9216V22.3928C0.0127714 22.3251 0.068799 22.2617 0.161132 22.2153C0.253465 22.169 0.375214 22.1432 0.501666 22.1432C0.628118 22.1432 0.749819 22.169 0.842152 22.2153C0.934485 22.2617 0.990513 22.3251 0.998901 22.3928V24.9216C1.00343 24.9581 0.993945 24.9948 0.971004 25.0292C0.948063 25.0637 0.91216 25.0953 0.865541 25.122C0.818922 25.1487 0.762564 25.1701 0.699968 25.1846C0.637373 25.1992 0.569897 25.2067 0.501666 25.2067C0.433435 25.2067 0.365911 25.1992 0.303316 25.1846C0.24072 25.1701 0.184362 25.1487 0.137743 25.122C0.0911237 25.0953 0.055231 25.0637 0.0322896 25.0292Z" fill="white"/>
<path d="M0.161132 21.4997C0.068799 21.4533 0.0127714 21.3899 0.00438315 21.3222V18.7934C-0.000143051 18.7568 0.00934821 18.7202 0.0322896 18.6857C0.055231 18.6513 0.0911237 18.6197 0.137743 18.593C0.184362 18.5662 0.24072 18.5449 0.303316 18.5303C0.365911 18.5158 0.433435 18.5083 0.501666 18.5083C0.569897 18.5083 0.637373 18.5158 0.699968 18.5303C0.762564 18.5449 0.818922 18.5662 0.865541 18.593C0.91216 18.6197 0.948063 18.6513 0.971004 18.6857C0.993945 18.7202 1.00343 18.7568 0.998901 18.7934V21.3222C0.990513 21.3899 0.934485 21.4533 0.842152 21.4997C0.749819 21.546 0.628118 21.5718 0.501666 21.5718C0.375214 21.5718 0.253465 21.546 0.161132 21.4997Z" fill="white"/>
<path d="M0.0322896 17.8292C0.00934821 17.7947 -0.000143051 17.7581 0.00438315 17.7215V15.1927C0.0127714 15.1251 0.068799 15.0616 0.161132 15.0153C0.253465 14.9689 0.375214 14.9431 0.501666 14.9431C0.628118 14.9431 0.749819 14.9689 0.842152 15.0153C0.934485 15.0616 0.990513 15.1251 0.998901 15.1927V17.7215C1.00343 17.7581 0.993945 17.7947 0.971004 17.8292C0.948063 17.8636 0.91216 17.8952 0.865541 17.922C0.818922 17.9487 0.762564 17.97 0.699968 17.9846C0.637373 17.9991 0.569897 18.0066 0.501666 18.0066C0.433435 18.0066 0.365911 17.9991 0.303316 17.9846C0.24072 17.97 0.184362 17.9487 0.137743 17.922C0.0911237 17.8952 0.055231 17.8636 0.0322896 17.8292Z" fill="white"/>
<path d="M0.161132 14.2996C0.068799 14.2532 0.0127714 14.1898 0.00438315 14.1221V11.5921C-0.000143051 11.5556 0.00934821 11.519 0.0322896 11.4845C0.055231 11.45 0.0911237 11.4184 0.137743 11.3917C0.184362 11.365 0.24072 11.3437 0.303316 11.3291C0.365911 11.3145 0.433435 11.307 0.501666 11.307C0.569897 11.307 0.637373 11.3145 0.699968 11.3291C0.762564 11.3437 0.818922 11.365 0.865541 11.3917C0.91216 11.4184 0.948063 11.45 0.971004 11.4845C0.993945 11.519 1.00343 11.5556 0.998901 11.5921V14.1221C0.990513 14.1898 0.934485 14.2532 0.842152 14.2996C0.749819 14.3459 0.628118 14.3717 0.501666 14.3717C0.375214 14.3717 0.253465 14.3459 0.161132 14.2996Z" fill="white"/>
<path d="M0.161132 10.699C0.068799 10.6526 0.0127714 10.5892 0.00438315 10.5215V7.99269C0.0127714 7.925 0.068799 7.86155 0.161132 7.8152C0.253465 7.76884 0.375214 7.74306 0.501666 7.74306C0.628118 7.74306 0.749819 7.76884 0.842152 7.8152C0.934485 7.86155 0.990513 7.925 0.998901 7.99269V10.5215C0.990513 10.5892 0.934485 10.6526 0.842152 10.699C0.749819 10.7453 0.628118 10.7711 0.501666 10.7711C0.375214 10.7711 0.253465 10.7453 0.161132 10.699Z" fill="white"/>
<path d="M0.0322896 7.0285C0.00934821 6.99402 -0.000143051 6.95739 0.00438315 6.92086V4.39207C0.0127714 4.32438 0.068799 4.26093 0.161132 4.21458C0.253465 4.16823 0.375214 4.14244 0.501666 4.14244C0.628118 4.14244 0.749819 4.16823 0.842152 4.21458C0.934485 4.26093 0.990513 4.32438 0.998901 4.39207V6.92086C1.00343 6.95739 0.993945 6.99402 0.971004 7.0285C0.948063 7.06297 0.91216 7.09455 0.865541 7.12128C0.818922 7.14801 0.762564 7.16932 0.699968 7.18388C0.637373 7.19845 0.569897 7.20597 0.501666 7.20597C0.433435 7.20597 0.365911 7.19845 0.303316 7.18388C0.24072 7.16932 0.184362 7.14801 0.137743 7.12128C0.0911237 7.09455 0.055231 7.06297 0.0322896 7.0285Z" fill="white"/>
<path d="M0.161132 3.49892C0.068799 3.45256 0.0127714 3.38911 0.00438315 3.32142V0.792628C-0.000143051 0.756103 0.00934821 0.71947 0.0322896 0.684996C0.055231 0.650522 0.0911237 0.618942 0.137743 0.592214C0.184362 0.565486 0.24072 0.544177 0.303316 0.52961C0.365911 0.515042 0.433435 0.507525 0.501666 0.507525C0.569897 0.507525 0.637373 0.515042 0.699968 0.52961C0.762564 0.544177 0.818922 0.565486 0.865541 0.592214C0.91216 0.618942 0.948063 0.650522 0.971004 0.684996C0.993945 0.71947 1.00343 0.756103 0.998901 0.792628V3.32142C0.990513 3.38911 0.934485 3.45256 0.842152 3.49892C0.749819 3.54527 0.628118 3.57105 0.501666 3.57105C0.375214 3.57105 0.253465 3.54527 0.161132 3.49892Z" fill="white"/>
</svg>
