<svg width="22" height="22" viewBox="0 0 22 22" fill="none" xmlns="http://www.w3.org/2000/svg">
<path fill-rule="evenodd" clip-rule="evenodd" d="M11 1.75C5.89137 1.75 1.75 5.89137 1.75 11C1.75 16.1086 5.89137 20.25 11 20.25C16.1086 20.25 20.25 16.1086 20.25 11C20.25 5.89137 16.1086 1.75 11 1.75ZM0.25 11C0.25 5.06294 5.06294 0.25 11 0.25C16.9371 0.25 21.75 5.06294 21.75 11C21.75 16.9371 16.9371 21.75 11 21.75C5.06294 21.75 0.25 16.9371 0.25 11ZM8.05806 7.24972L12.3475 7.28111C12.7617 7.28415 13.095 7.62238 13.092 8.03658C13.0889 8.45079 12.7507 8.78411 12.3365 8.78107L9.82334 8.76268L14.5303 13.4697C14.8232 13.7626 14.8232 14.2374 14.5303 14.5303C14.2374 14.8232 13.7626 14.8232 13.4697 14.5303L8.76268 9.82334L8.78107 12.3365C8.78411 12.7507 8.45079 13.0889 8.03658 13.092C7.62238 13.095 7.28415 12.7617 7.28111 12.3475L7.24972 8.05806L7.25394 8.01705C7.27639 7.79875 7.37956 7.62197 7.50076 7.50077C7.62196 7.37957 7.79875 7.27639 8.01705 7.25394L8.05806 7.24972Z" fill="#282930"/>
</svg>
