<svg width="23" height="23" viewBox="0 0 23 23" fill="none" xmlns="http://www.w3.org/2000/svg">
<path fill-rule="evenodd" clip-rule="evenodd" d="M6.39704 0.49713H15.7904C19.235 0.49713 22.0527 3.2426 22.0527 6.60337V9.55032C18.9648 10.9047 15.8499 17.5936 11.3098 16.1402C10.9359 16.3995 10.074 17.468 10.0136 18.2787C8.44144 18.0744 6.62903 16.3165 6.84652 14.4207C4.22986 12.5739 6.39068 9.16471 8.46565 7.79252C12.9129 4.85148 19.0869 7.38084 15.6526 9.48367C13.5644 10.7623 9.09881 11.607 9.56309 8.46797C8.3381 8.8127 7.55397 11.0415 9.02886 12.2029C7.66257 13.5127 7.92525 15.9203 9.38571 16.7109C10.8627 12.9767 16.0035 13.4647 18.0806 9.00714C19.6433 5.65407 17.3264 1.83341 12.6942 2.42032C9.1983 2.86332 5.92139 5.74082 4.28257 9.15362C2.61978 12.6162 2.86723 17.253 6.2816 19.5898C10.2998 22.3398 14.5777 19.7934 17.1687 16.4654C18.6959 14.5037 20.0303 12.3307 22.0527 11.0755V16.3004C22.0527 19.6611 19.2346 22.415 15.7904 22.415H6.39704C2.95278 22.415 0.134766 19.6653 0.134766 16.3046V6.60754C0.134766 3.24677 2.95278 0.49707 6.39704 0.49707V0.49713Z" fill="#686868" fill-opacity="0.8"/>
</svg>
