<svg width="23" height="22" viewBox="0 0 23 22" fill="none" xmlns="http://www.w3.org/2000/svg">
<path d="M11.9453 1.98212C14.8823 1.98212 15.229 1.99247 16.3883 2.04681C17.4595 2.09598 18.0418 2.27452 18.4299 2.42461C18.9423 2.62385 19.3097 2.86191 19.6953 3.24747C20.0808 3.63303 20.3189 3.99788 20.5181 4.51282C20.6682 4.90096 20.8467 5.48318 20.8959 6.55446C20.9477 7.71371 20.9606 8.06304 20.9606 10.9974C20.9606 13.9318 20.9503 14.2811 20.8959 15.4404C20.8467 16.5116 20.6682 17.0939 20.5181 17.482C20.3189 17.9944 20.0808 18.3618 19.6953 18.7474C19.3097 19.1329 18.9448 19.371 18.4299 19.5702C18.0418 19.7203 17.4595 19.8988 16.3883 19.948C15.229 19.9998 14.8823 20.0127 11.9453 20.0127C9.00836 20.0127 8.66161 20.0024 7.50236 19.948C6.43108 19.8988 5.84887 19.7203 5.46072 19.5702C4.94837 19.371 4.58093 19.1329 4.19537 18.7474C3.80981 18.3618 3.57175 17.9969 3.37251 17.482C3.22242 17.0939 3.04388 16.5116 2.99471 15.4404C2.94296 14.2811 2.93002 13.9318 2.93002 10.9974C2.93002 8.06304 2.94037 7.71371 2.99471 6.55446C3.04388 5.48318 3.22242 4.90096 3.37251 4.51282C3.57175 4.00047 3.80981 3.63303 4.19537 3.24747C4.58093 2.86191 4.94578 2.62385 5.46072 2.42461C5.84887 2.27452 6.43108 2.09598 7.50236 2.04681C8.66161 1.99506 9.01094 1.98212 11.9453 1.98212ZM11.9453 0C8.95919 0 8.58399 0.0129381 7.41179 0.0672783C6.24218 0.121618 5.44261 0.30534 4.74136 0.579628C4.01941 0.86168 3.40615 1.23689 2.79288 1.84757C2.1822 2.45824 1.8044 3.07151 1.52494 3.79605C1.25324 4.49471 1.06693 5.29428 1.01259 6.46648C0.958251 7.63867 0.945312 8.01388 0.945312 11C0.945312 13.9861 0.958251 14.3613 1.01259 15.5335C1.06693 16.7031 1.25065 17.5027 1.52494 18.204C1.80699 18.9259 2.1822 19.5392 2.79288 20.1524C3.40356 20.7631 4.01682 21.1409 4.74136 21.4204C5.44002 21.6921 6.2396 21.8784 7.41179 21.9327C8.58399 21.9871 8.95919 22 11.9453 22C14.9314 22 15.3066 21.9871 16.4788 21.9327C17.6484 21.8784 18.448 21.6947 19.1493 21.4204C19.8712 21.1383 20.4845 20.7631 21.0977 20.1524C21.7084 19.5418 22.0862 18.9285 22.3657 18.204C22.6374 17.5053 22.8237 16.7057 22.878 15.5335C22.9324 14.3613 22.9453 13.9861 22.9453 11C22.9453 8.01388 22.9324 7.63867 22.878 6.46648C22.8237 5.29687 22.64 4.49729 22.3657 3.79605C22.0836 3.0741 21.7084 2.46083 21.0977 1.84757C20.4871 1.23689 19.8738 0.859092 19.1493 0.579628C18.4506 0.307928 17.651 0.121618 16.4788 0.0672783C15.3066 0.0129381 14.9314 0 11.9453 0Z" fill="#686868" fill-opacity="0.8"/>
<path d="M11.9453 5.26087C8.7759 5.26087 6.20618 7.83059 6.20618 11C6.20618 14.1694 8.7759 16.7391 11.9453 16.7391C15.1147 16.7391 17.6844 14.1694 17.6844 11C17.6844 7.83059 15.1147 5.26087 11.9453 5.26087ZM11.9453 14.727C9.88848 14.727 8.2183 13.0595 8.2183 11C8.2183 8.94054 9.88585 7.27298 11.9453 7.27298C14.0048 7.27298 15.6723 8.94054 15.6723 11C15.6723 13.0595 14.0048 14.727 11.9453 14.727Z" fill="#686868" fill-opacity="0.8"/>
<path d="M17.6844 6.69565C18.4769 6.69565 19.1192 6.05328 19.1192 5.26087C19.1192 4.46846 18.4769 3.82609 17.6844 3.82609C16.892 3.82609 16.2497 4.46846 16.2497 5.26087C16.2497 6.05328 16.892 6.69565 17.6844 6.69565Z" fill="#686868" fill-opacity="0.8"/>
</svg>
