<svg width="24" height="24" viewBox="0 0 24 24" fill="none" xmlns="http://www.w3.org/2000/svg">
<path fill-rule="evenodd" clip-rule="evenodd" d="M3.46967 3.46967C3.76256 3.17678 4.23744 3.17678 4.53033 3.46967L7.31337 6.25271C8.67452 5.65337 10.2441 5.25 12 5.25C17.0146 5.25 20.4922 8.52807 22.03 10.328C22.0403 10.3401 22.0505 10.3521 22.0608 10.364C22.3096 10.6548 22.5384 10.9222 22.6729 11.3806C22.7321 11.5827 22.75 11.8129 22.75 12C22.75 12.1871 22.7321 12.4173 22.6729 12.6194C22.5384 13.0778 22.3096 13.3452 22.0607 13.636C22.0505 13.6479 22.0403 13.6599 22.03 13.672C21.2172 14.6232 19.8853 15.9619 18.0869 17.0263L20.5303 19.4697C20.8232 19.7626 20.8232 20.2374 20.5303 20.5303C20.2374 20.8232 19.7626 20.8232 19.4697 20.5303L3.46967 4.53033C3.17678 4.23744 3.17678 3.76256 3.46967 3.46967ZM16.9875 15.9268C18.7636 14.9506 20.0894 13.6341 20.8895 12.6976C21.1683 12.3713 21.1958 12.3257 21.2335 12.1974C21.2334 12.1976 21.2335 12.1974 21.2335 12.1974C21.2341 12.1948 21.2387 12.1756 21.2429 12.1377C21.2473 12.0982 21.25 12.0507 21.25 12C21.25 11.9493 21.2473 11.9018 21.2429 11.8623C21.2382 11.8202 21.2331 11.8014 21.2335 11.8027C21.1958 11.6743 21.1684 11.6288 20.8895 11.3024C19.4397 9.6054 16.3435 6.75 12 6.75C10.7064 6.75 9.52498 7.00223 8.4633 7.40264L9.93204 8.87138C10.5247 8.479 11.236 8.25 12 8.25C14.0711 8.25 15.75 9.92893 15.75 12C15.75 12.764 15.521 13.4753 15.1286 14.068L16.9875 15.9268ZM14.0309 12.9702C14.1715 12.6765 14.25 12.3476 14.25 12C14.25 10.7574 13.2426 9.75 12 9.75C11.6524 9.75 11.3235 9.82853 11.0298 9.96914L14.0309 12.9702ZM5.71726 7.95772C5.96382 8.29055 5.89389 8.76025 5.56106 9.00682C4.49764 9.79461 3.672 10.6451 3.1105 11.3024C2.83165 11.6288 2.80417 11.6743 2.76652 11.8027C2.76655 11.8026 2.76659 11.8024 2.76652 11.8027C2.76592 11.8052 2.76131 11.8244 2.75708 11.8623C2.75268 11.9018 2.75 11.9493 2.75 12C2.75 12.0507 2.75268 12.0982 2.75708 12.1377C2.76131 12.1756 2.76587 12.1946 2.76647 12.1971C2.76651 12.1972 2.76654 12.1973 2.76647 12.1971C2.80412 12.3254 2.83163 12.3712 3.1105 12.6976C4.56029 14.3946 7.65653 17.25 12 17.25C12.7965 17.25 13.5494 17.1544 14.2571 16.9881C14.6604 16.8934 15.0641 17.1435 15.1588 17.5467C15.2535 17.9499 15.0035 18.3536 14.6002 18.4484C13.7856 18.6398 12.9177 18.75 12 18.75C6.98545 18.75 3.50781 15.4719 1.97003 13.672C1.95974 13.6599 1.94948 13.6479 1.93924 13.636C1.69042 13.3452 1.46158 13.0778 1.32715 12.6194C1.26785 12.4173 1.25 12.1871 1.25 12C1.25 11.8129 1.26785 11.5827 1.32715 11.3806C1.46158 10.9222 1.69042 10.6548 1.93924 10.364C1.94947 10.3521 1.95974 10.3401 1.97003 10.328C2.58498 9.60824 3.49189 8.67292 4.66816 7.80152C5.00099 7.55496 5.47069 7.62489 5.71726 7.95772ZM8.93999 11.5587C9.35211 11.5171 9.71992 11.8174 9.76151 12.2296C9.86837 13.2883 10.7117 14.1316 11.7704 14.2385C12.1826 14.2801 12.4829 14.6479 12.4413 15.06C12.3998 15.4721 12.0319 15.7725 11.6198 15.7309C9.85176 15.5525 8.44753 14.1482 8.26909 12.3802C8.2275 11.9681 8.52787 11.6002 8.93999 11.5587Z" fill="#98A2B3"/>
</svg>
