<svg width="28" height="28" viewBox="0 0 28 28" fill="none" xmlns="http://www.w3.org/2000/svg">
<path d="M6.90599 8.72319L5.04865 8.17303C4.9778 8.15204 4.89678 8.18739 4.86036 8.2543C3.89821 10.6686 3.503 11.589 2.37874 13.668C2.37215 13.6802 2.36388 13.6918 2.35661 13.7036C2.31807 13.7663 2.32926 13.8447 2.38639 13.8867L3.89534 14.9951C3.95987 15.0425 4.05773 15.0252 4.11099 14.9577C4.27484 14.7465 4.42838 14.5451 4.57259 14.3511C5.75416 12.7621 6.30882 11.6764 6.7693 9.8542C6.84178 9.56742 6.91192 9.26239 6.9818 8.9343C6.98527 8.91802 6.99129 8.90194 6.99566 8.88587C7.01479 8.81548 6.97766 8.74442 6.90599 8.72319Z" fill="#1565C0"/>
<path d="M5.57869 15.3432C5.61835 15.2906 5.65744 15.2383 5.696 15.1865C6.97001 13.4731 7.61466 12.2229 8.12659 10.1972C8.14222 10.1353 8.15772 10.0728 8.17309 10.0097L11.4947 10.3749L9.58032 12.2496C8.21379 13.5878 9.37061 15.9232 11.3022 15.5647C12.2863 15.3821 13.3964 15.1045 14.3467 14.6051C14.3825 14.5863 14.4217 14.5715 14.4602 14.562C14.4911 14.5545 14.5166 14.5515 14.5353 14.5509L19.2753 18.6769C19.1449 18.8113 18.9942 18.929 18.8261 19.025L15.1644 21.1167C13.7911 21.9012 12.0503 21.6807 10.926 20.5797L5.57869 15.3432Z" fill="#1565C0"/>
<g opacity="0.4">
<path d="M21.095 8.72319L22.9524 8.17303C23.0232 8.15204 23.1042 8.18739 23.1407 8.2543C24.1028 10.6686 24.498 11.589 25.6223 13.668C25.6289 13.6801 25.6371 13.6918 25.6444 13.7036C25.6829 13.7663 25.6718 13.8447 25.6146 13.8867L24.1057 14.9951C24.0411 15.0425 23.9433 15.0252 23.89 14.9577C23.7316 14.7535 23.5828 14.5585 23.4428 14.3705C22.2571 12.7786 21.6995 11.6943 21.2384 9.88071C21.1636 9.58623 21.0913 9.27253 21.0192 8.9343C21.0157 8.91802 21.0097 8.90194 21.0054 8.88587C20.9862 8.81548 21.0234 8.74442 21.095 8.72319Z" fill="#1565C0"/>
<path d="M22.3529 15.2509C22.3419 15.2361 22.3309 15.2214 22.32 15.2068C21.0431 13.4926 20.3946 12.2442 19.8815 10.2256C19.8528 10.1128 19.8246 9.99788 19.7968 9.88071H14.9667C14.3478 9.88071 13.7543 10.1214 13.3168 10.55L10.5597 13.2499C10.1644 13.6369 10.4973 14.2902 11.0465 14.1882C11.9873 14.0136 12.9327 13.7666 13.6953 13.3658C14.2396 13.0797 14.944 13.0507 15.4057 13.4526L19.8335 17.3068L22.3529 15.2509Z" fill="#1565C0"/>
</g>
</svg>
