<svg width="20" height="20" viewBox="0 0 20 20" fill="none" xmlns="http://www.w3.org/2000/svg">
<path fill-rule="evenodd" clip-rule="evenodd" d="M11.0567 1.53442C13.1026 -0.511475 16.4197 -0.511475 18.4656 1.53442C20.5115 3.58032 20.5115 6.89738 18.4656 8.94328L16.8785 10.5303C16.5856 10.8232 16.1108 10.8232 15.8179 10.5303C15.525 10.2374 15.525 9.76256 15.8179 9.46967L17.4049 7.88262C18.865 6.42251 18.865 4.0552 17.4049 2.59508C15.9448 1.13497 13.5775 1.13497 12.1174 2.59508L8.14976 6.56271C6.68964 8.02282 6.68964 10.3901 8.14976 11.8502C8.50133 12.2018 8.90397 12.4678 9.33303 12.6496C9.71442 12.8112 9.8926 13.2513 9.73101 13.6327C9.56941 14.0141 9.12923 14.1923 8.74784 14.0307C8.14418 13.7749 7.57937 13.4012 7.0891 12.9109C5.0432 10.865 5.0432 7.54795 7.0891 5.50205L11.0567 1.53442ZM10.269 6.36727C10.4306 5.98588 10.8708 5.8077 11.2522 5.96929C11.8558 6.22507 12.4206 6.59882 12.9109 7.0891C14.9568 9.135 14.9568 12.4521 12.9109 14.498L8.94328 18.4656C6.89738 20.5115 3.58032 20.5115 1.53442 18.4656C-0.511475 16.4197 -0.511475 13.1026 1.53442 11.0567L3.12147 9.46967C3.41437 9.17678 3.88924 9.17678 4.18213 9.46967C4.47503 9.76256 4.47503 10.2374 4.18213 10.5303L2.59508 12.1174C1.13497 13.5775 1.13497 15.9448 2.59508 17.4049C4.0552 18.865 6.42251 18.865 7.88262 17.4049L11.8502 13.4373C13.3104 11.9772 13.3104 9.60987 11.8502 8.14976C11.4987 7.79818 11.096 7.53223 10.667 7.35043C10.2856 7.18884 10.1074 6.74866 10.269 6.36727Z" fill="#1565C0"/>
</svg>
