<svg width="22" height="22" viewBox="0 0 22 22" fill="none" xmlns="http://www.w3.org/2000/svg">
<path d="M7.75 9.2C7.75 8.78579 7.41421 8.45 7 8.45C6.58579 8.45 6.25 8.78579 6.25 9.2H7H7.75ZM15.75 12.2C15.75 11.7858 15.4142 11.45 15 11.45C14.5858 11.45 14.25 11.7858 14.25 12.2H15H15.75ZM7.41441 16.047C7.67978 16.365 8.15273 16.4077 8.47077 16.1424C8.78881 15.877 8.83151 15.404 8.56613 15.086L7.99027 15.5665L7.41441 16.047ZM14.2465 9.03837C14.2644 9.4522 14.6144 9.77314 15.0283 9.75521C15.4421 9.73729 15.763 9.38728 15.7451 8.97346L14.9958 9.00592L14.2465 9.03837ZM10.7193 16.2373C10.3067 16.2 9.94203 16.5041 9.90466 16.9166C9.86728 17.3291 10.1714 17.6939 10.5839 17.7312L10.6516 16.9843L10.7193 16.2373ZM7.66275 5.67728C7.37406 5.97432 7.38083 6.44914 7.67786 6.73783C7.9749 7.02652 8.44973 7.01976 8.73842 6.72272L8.20058 6.2L7.66275 5.67728ZM6.8 21.75C7.21421 21.75 7.55 21.4142 7.55 21C7.55 20.5858 7.21421 20.25 6.8 20.25V21V21.75ZM2.63803 20.673L2.29754 21.3413H2.29754L2.63803 20.673ZM1.75 15.2C1.75 14.7858 1.41421 14.45 1 14.45C0.585786 14.45 0.25 14.7858 0.25 15.2H1H1.75ZM1.32698 19.362L0.658726 19.7025H0.658726L1.32698 19.362ZM21.75 15.2C21.75 14.7858 21.4142 14.45 21 14.45C20.5858 14.45 20.25 14.7858 20.25 15.2H21H21.75ZM20.673 19.362L21.3413 19.7025V19.7025L20.673 19.362ZM15.2 20.25C14.7858 20.25 14.45 20.5858 14.45 21C14.45 21.4142 14.7858 21.75 15.2 21.75V21V20.25ZM19.362 20.673L19.7025 21.3413H19.7025L19.362 20.673ZM15.2 0.25C14.7858 0.25 14.45 0.585786 14.45 1C14.45 1.41421 14.7858 1.75 15.2 1.75V1V0.25ZM19.362 1.32698L19.7025 0.658726V0.658726L19.362 1.32698ZM20.25 6.8C20.25 7.21421 20.5858 7.55 21 7.55C21.4142 7.55 21.75 7.21421 21.75 6.8H21H20.25ZM20.673 2.63803L21.3413 2.29754V2.29754L20.673 2.63803ZM6.8 1.75C7.21421 1.75 7.55 1.41421 7.55 1C7.55 0.585786 7.21421 0.25 6.8 0.25V1V1.75ZM2.63803 1.32698L2.29754 0.658726L2.63803 1.32698ZM0.25 6.8C0.25 7.21421 0.585786 7.55 1 7.55C1.41421 7.55 1.75 7.21421 1.75 6.8H1H0.25ZM1.32698 2.63803L0.658726 2.29754L1.32698 2.63803ZM7 12.8H7.75V9.2H7H6.25V12.8H7ZM15 12.8H14.25C14.25 14.7403 12.7609 16.25 11 16.25V17V17.75C13.6574 17.75 15.75 15.4989 15.75 12.8H15ZM15 12.2H14.25V12.8H15H15.75V12.2H15ZM7.99027 15.5665L8.56613 15.086C8.06037 14.4799 7.75 13.6813 7.75 12.8H7H6.25C6.25 14.0379 6.68704 15.1753 7.41441 16.047L7.99027 15.5665ZM11 5V5.75C12.7119 5.75 14.1658 7.17557 14.2465 9.03837L14.9958 9.00592L15.7451 8.97346C15.6326 6.37726 13.5824 4.25 11 4.25V5ZM11 17V16.25C10.9052 16.25 10.8116 16.2457 10.7193 16.2373L10.6516 16.9843L10.5839 17.7312C10.7212 17.7437 10.86 17.75 11 17.75V17ZM11 5V4.25C9.69388 4.25 8.51564 4.79973 7.66275 5.67728L8.20058 6.2L8.73842 6.72272C9.32843 6.11565 10.1263 5.75 11 5.75V5ZM12.5 9.90909H11.75V12.0909H12.5H13.25V9.90909H12.5ZM9.5 12.0909H10.25V9.90909H9.5H8.75V12.0909H9.5ZM11 13.7273V12.9773C10.6459 12.9773 10.25 12.6432 10.25 12.0909H9.5H8.75C8.75 13.3461 9.69726 14.4773 11 14.4773V13.7273ZM12.5 12.0909H11.75C11.75 12.6432 11.3541 12.9773 11 12.9773V13.7273V14.4773C12.3027 14.4773 13.25 13.3461 13.25 12.0909H12.5ZM11 8.27273V9.02273C11.3541 9.02273 11.75 9.3568 11.75 9.90909H12.5H13.25C13.25 8.6539 12.3027 7.52273 11 7.52273V8.27273ZM11 8.27273V7.52273C9.69726 7.52273 8.75 8.6539 8.75 9.90909H9.5H10.25C10.25 9.3568 10.6459 9.02273 11 9.02273V8.27273ZM6.8 21V20.25C5.95437 20.25 5.09621 20.2498 4.3704 20.2102C4.00802 20.1905 3.69383 20.1617 3.44064 20.1214C3.17281 20.0788 3.03175 20.0319 2.97852 20.0048L2.63803 20.673L2.29754 21.3413C2.56518 21.4776 2.89478 21.5534 3.20495 21.6027C3.52977 21.6544 3.90094 21.6869 4.28881 21.708C5.06351 21.7502 5.96548 21.75 6.8 21.75V21ZM1 15.2H0.25C0.25 16.0345 0.249779 16.9365 0.291983 17.7112C0.313113 18.0991 0.345582 18.4702 0.397261 18.795C0.446611 19.1052 0.522355 19.4348 0.658726 19.7025L1.32698 19.362L1.99524 19.0215C1.96812 18.9683 1.92124 18.8272 1.87863 18.5594C1.83834 18.3062 1.8095 17.992 1.78976 17.6296C1.75022 16.9038 1.75 16.0456 1.75 15.2H1ZM2.63803 20.673L2.97852 20.0048C2.55516 19.789 2.21095 19.4448 1.99524 19.0215L1.32698 19.362L0.658726 19.7025C1.01825 20.4081 1.59193 20.9817 2.29754 21.3413L2.63803 20.673ZM21 15.2H20.25C20.25 16.0456 20.2498 16.9038 20.2102 17.6296C20.1905 17.992 20.1617 18.3062 20.1214 18.5594C20.0788 18.8272 20.0319 18.9683 20.0048 19.0215L20.673 19.362L21.3413 19.7025C21.4776 19.4348 21.5534 19.1052 21.6027 18.795C21.6544 18.4702 21.6869 18.0991 21.708 17.7112C21.7502 16.9365 21.75 16.0345 21.75 15.2H21ZM15.2 21V21.75C16.0345 21.75 16.9365 21.7502 17.7112 21.708C18.0991 21.6869 18.4702 21.6544 18.795 21.6027C19.1052 21.5534 19.4348 21.4776 19.7025 21.3413L19.362 20.673L19.0215 20.0048C18.9683 20.0319 18.8272 20.0788 18.5594 20.1214C18.3062 20.1617 17.992 20.1905 17.6296 20.2102C16.9038 20.2498 16.0456 20.25 15.2 20.25V21ZM20.673 19.362L20.0048 19.0215C19.789 19.4448 19.4448 19.789 19.0215 20.0048L19.362 20.673L19.7025 21.3413C20.4081 20.9817 20.9817 20.4081 21.3413 19.7025L20.673 19.362ZM15.2 1V1.75C16.0456 1.75 16.9038 1.75022 17.6296 1.78976C17.992 1.8095 18.3062 1.83834 18.5594 1.87863C18.8272 1.92124 18.9683 1.96812 19.0215 1.99524L19.362 1.32698L19.7025 0.658726C19.4348 0.522355 19.1052 0.446611 18.795 0.397261C18.4702 0.345582 18.0991 0.313113 17.7112 0.291983C16.9365 0.249779 16.0345 0.25 15.2 0.25V1ZM21 6.8H21.75C21.75 5.96548 21.7502 5.06351 21.708 4.28881C21.6869 3.90094 21.6544 3.52977 21.6027 3.20495C21.5534 2.89478 21.4776 2.56518 21.3413 2.29754L20.673 2.63803L20.0048 2.97852C20.0319 3.03175 20.0788 3.17281 20.1214 3.44064C20.1617 3.69383 20.1905 4.00802 20.2102 4.3704C20.2498 5.09621 20.25 5.95437 20.25 6.8H21ZM19.362 1.32698L19.0215 1.99524C19.4448 2.21095 19.789 2.55516 20.0048 2.97852L20.673 2.63803L21.3413 2.29754C20.9817 1.59193 20.4081 1.01825 19.7025 0.658726L19.362 1.32698ZM6.8 1V0.25C5.96548 0.25 5.06351 0.249779 4.28881 0.291983C3.90094 0.313113 3.52977 0.345582 3.20495 0.397261C2.89478 0.446611 2.56518 0.522355 2.29754 0.658726L2.63803 1.32698L2.97852 1.99524C3.03175 1.96812 3.17281 1.92124 3.44064 1.87863C3.69383 1.83834 4.00802 1.8095 4.3704 1.78976C5.09621 1.75022 5.95437 1.75 6.8 1.75V1ZM1 6.8H1.75C1.75 5.95437 1.75022 5.09621 1.78976 4.3704C1.8095 4.00802 1.83834 3.69383 1.87863 3.44064C1.92124 3.17281 1.96812 3.03175 1.99524 2.97852L1.32698 2.63803L0.658726 2.29754C0.522355 2.56518 0.446611 2.89478 0.397261 3.20495C0.345582 3.52977 0.313113 3.90094 0.291983 4.28881C0.249779 5.06351 0.25 5.96548 0.25 6.8H1ZM2.63803 1.32698L2.29754 0.658726C1.59193 1.01825 1.01825 1.59193 0.658726 2.29754L1.32698 2.63803L1.99524 2.97852C2.21095 2.55516 2.55516 2.21095 2.97852 1.99524L2.63803 1.32698Z" fill="#282930"/>
</svg>
