<svg width="134" height="233" viewBox="0 0 134 233" fill="none" xmlns="http://www.w3.org/2000/svg">
<path d="M23.7459 232.878H123.33C124.661 232.89 125.981 232.626 127.205 232.104C128.43 231.581 129.533 230.811 130.446 229.841C131.359 228.871 132.061 227.724 132.508 226.47C132.956 225.216 133.139 223.882 133.047 222.554L120.599 10.5803C120.4 7.81054 119.171 5.21555 117.156 3.30521C115.141 1.39488 112.484 0.307316 109.707 0.256238H10.1231C8.79163 0.24445 7.47211 0.508189 6.24749 1.03088C5.02286 1.55357 3.91959 2.32391 3.00699 3.29349C2.09441 4.26307 1.39223 5.41094 0.944595 6.66494C0.496948 7.91895 0.313538 9.25199 0.405869 10.5803L12.8539 222.554C13.0534 225.324 14.2816 227.919 16.297 229.829C18.3124 231.74 20.9694 232.827 23.7459 232.878Z" fill="white"/>
</svg>
