<svg width="18" height="12" viewBox="0 0 18 12" fill="none" xmlns="http://www.w3.org/2000/svg">
<path d="M0 6C0 5.73718 0.0904255 5.42729 0.342497 5.15556L0.390455 5.10386L5.87836 0.361329C6.42687 -0.112682 7.32657 -0.121456 7.8879 0.341729C8.44923 0.804915 8.45962 1.56466 7.91111 2.03867L4.71579 4.8H16.5789C17.3638 4.8 18 5.33726 18 6C18 6.66274 17.3638 7.2 16.5789 7.2H4.71579L7.91111 9.96133C8.45962 10.4353 8.44923 11.1951 7.8879 11.6583C7.32657 12.1215 6.42687 12.1127 5.87836 11.6387L0.390455 6.89614L0.342497 6.84444C0.0904274 6.57271 0 6.26282 0 6Z" fill="#1565C0"/>
</svg>
