<svg width="8" height="8" viewBox="0 0 8 8" fill="none" xmlns="http://www.w3.org/2000/svg">
<path d="M4.58333 0.625C4.58333 0.279822 4.30351 0 3.95833 0C3.61316 0 3.33333 0.279822 3.33333 0.625V3.33333H0.625C0.279822 3.33333 0 3.61316 0 3.95833C0 4.30351 0.279822 4.58333 0.625 4.58333H3.33333V7.29167C3.33333 7.63684 3.61316 7.91667 3.95833 7.91667C4.30351 7.91667 4.58333 7.63684 4.58333 7.29167V4.58333H7.29167C7.63684 4.58333 7.91667 4.30351 7.91667 3.95833C7.91667 3.61316 7.63684 3.33333 7.29167 3.33333H4.58333V0.625Z" fill="#1565C0"/>
</svg>
