<svg width="18" height="12" viewBox="0 0 18 12" fill="none" xmlns="http://www.w3.org/2000/svg">
<path d="M18 6C18 5.73718 17.9096 5.42729 17.6575 5.15556L17.6095 5.10386L12.1216 0.361329C11.5731 -0.112682 10.6734 -0.121456 10.1121 0.341729C9.55077 0.804915 9.54038 1.56466 10.0889 2.03867L13.2842 4.8H1.42105C0.636228 4.8 0 5.33726 0 6C0 6.66274 0.636228 7.2 1.42105 7.2H13.2842L10.0889 9.96133C9.54038 10.4353 9.55077 11.1951 10.1121 11.6583C10.6734 12.1215 11.5731 12.1127 12.1216 11.6387L17.6095 6.89614L17.6575 6.84444C17.9096 6.57271 18 6.26282 18 6Z" fill="#1565C0"/>
</svg>
