<svg width="28" height="28" viewBox="0 0 28 28" fill="none" xmlns="http://www.w3.org/2000/svg">
<path opacity="0.4" fill-rule="evenodd" clip-rule="evenodd" d="M20.0673 3.5H7.93398C5.9738 3.5 4.99371 3.5 4.24502 3.88148C3.58645 4.21703 3.05102 4.75247 2.71546 5.41103C2.33398 6.15972 2.33398 7.13982 2.33398 9.1V16.5667C2.33398 18.5268 2.33398 19.5069 2.71546 20.2556C3.05102 20.9142 3.58645 21.4496 4.24502 21.7852C4.89708 22.1174 5.72466 22.1603 7.22237 22.1658L6.38193 23.0063C6.04022 23.348 6.04022 23.902 6.38193 24.2437C6.72364 24.5854 7.27766 24.5854 7.61937 24.2437L9.69642 22.1667H18.3049L20.3819 24.2437C20.7236 24.5854 21.2777 24.5854 21.6194 24.2437C21.9611 23.902 21.9611 23.348 21.6194 23.0063L20.7789 22.1658C22.2766 22.1603 23.1042 22.1174 23.7563 21.7852C24.4149 21.4496 24.9503 20.9142 25.2858 20.2556C25.6673 19.5069 25.6673 18.5268 25.6673 16.5667V9.1C25.6673 7.13982 25.6673 6.15972 25.2858 5.41103C24.9503 4.75247 24.4149 4.21703 23.7563 3.88148C23.0076 3.5 22.0275 3.5 20.0673 3.5Z" fill="#1565C0"/>
<path d="M18.9577 8.75C18.9577 8.26675 18.5659 7.875 18.0827 7.875C17.5994 7.875 17.2077 8.26675 17.2077 8.75V16.3333C17.2077 16.8166 17.5994 17.2083 18.0827 17.2083C18.5659 17.2083 18.9577 16.8166 18.9577 16.3333V8.75Z" fill="#1565C0"/>
<path d="M14.8743 11.0833C14.8743 10.6001 14.4826 10.2083 13.9993 10.2083C13.5161 10.2083 13.1243 10.6001 13.1243 11.0833V16.3333C13.1243 16.8166 13.5161 17.2083 13.9993 17.2083C14.4826 17.2083 14.8743 16.8166 14.8743 16.3333V11.0833Z" fill="#1565C0"/>
<path d="M10.791 13.4167C10.791 12.9334 10.3993 12.5417 9.91602 12.5417C9.43277 12.5417 9.04102 12.9334 9.04102 13.4167V16.3333C9.04102 16.8166 9.43277 17.2083 9.91602 17.2083C10.3993 17.2083 10.791 16.8166 10.791 16.3333V13.4167Z" fill="#1565C0"/>
</svg>
