<svg width="22" height="27" viewBox="0 0 22 27" fill="none" xmlns="http://www.w3.org/2000/svg">
<path d="M13.7233 1.84835L13.193 2.37868L13.7233 1.84835ZM19.6516 7.77665L20.182 7.24632L19.6516 7.77665ZM2.79754 25.3413L2.45704 26.0095H2.45704L2.79754 25.3413ZM1.15873 23.7025L1.82698 23.362H1.82698L1.15873 23.7025ZM18.7025 25.3413L19.043 26.0095H19.043L18.7025 25.3413ZM20.3413 23.7025L19.673 23.362L20.3413 23.7025ZM1.15873 2.79754L1.82698 3.13803V3.13803L1.15873 2.79754ZM2.79754 1.15873L3.13803 1.82698H3.13803L2.79754 1.15873ZM20.4132 8.875L21.0958 8.56435V8.56435L20.4132 8.875ZM14.75 25.75V25H6.75V25.75V26.5H14.75V25.75ZM0.75 19.75H1.5V6.75H0.75H0V19.75H0.75ZM20.75 10.4283H20V19.75H20.75H21.5V10.4283H20.75ZM13.7233 1.84835L13.193 2.37868L19.1213 8.30698L19.6516 7.77665L20.182 7.24632L14.2537 1.31802L13.7233 1.84835ZM6.75 0.75V1.5H11.0717V0.75V0H6.75V0.75ZM6.75 25.75V25C5.68753 25 4.93578 24.9994 4.34808 24.9514C3.76914 24.9041 3.41576 24.8145 3.13803 24.673L2.79754 25.3413L2.45704 26.0095C2.98148 26.2767 3.55423 26.3915 4.22593 26.4464C4.88888 26.5006 5.71228 26.5 6.75 26.5V25.75ZM0.75 19.75H0C0 20.7877 -0.000583291 21.6111 0.0535815 22.2741C0.108462 22.9458 0.223257 23.5185 0.490471 24.043L1.15873 23.7025L1.82698 23.362C1.68547 23.0842 1.5959 22.7309 1.5486 22.1519C1.50058 21.5642 1.5 20.8125 1.5 19.75H0.75ZM2.79754 25.3413L3.13803 24.673C2.57354 24.3854 2.1146 23.9265 1.82698 23.362L1.15873 23.7025L0.49047 24.043C0.921901 24.8897 1.61031 25.5781 2.45704 26.0095L2.79754 25.3413ZM14.75 25.75V26.5C15.7877 26.5 16.6111 26.5006 17.2741 26.4464C17.9458 26.3915 18.5185 26.2767 19.043 26.0095L18.7025 25.3413L18.362 24.673C18.0842 24.8145 17.7309 24.9041 17.1519 24.9514C16.5642 24.9994 15.8125 25 14.75 25V25.75ZM20.75 19.75H20C20 20.8125 19.9994 21.5642 19.9514 22.1519C19.9041 22.7309 19.8145 23.0842 19.673 23.362L20.3413 23.7025L21.0095 24.043C21.2767 23.5185 21.3915 22.9458 21.4464 22.2741C21.5006 21.6111 21.5 20.7877 21.5 19.75H20.75ZM18.7025 25.3413L19.043 26.0095C19.8897 25.5781 20.5781 24.8897 21.0095 24.043L20.3413 23.7025L19.673 23.362C19.3854 23.9265 18.9265 24.3854 18.362 24.673L18.7025 25.3413ZM0.75 6.75H1.5C1.5 5.68753 1.50058 4.93578 1.5486 4.34808C1.5959 3.76914 1.68547 3.41576 1.82698 3.13803L1.15873 2.79754L0.490471 2.45704C0.223257 2.98148 0.108462 3.55423 0.0535815 4.22593C-0.000583291 4.88888 0 5.71228 0 6.75H0.75ZM6.75 0.75V0C5.71228 0 4.88888 -0.000583291 4.22593 0.0535815C3.55423 0.108462 2.98148 0.223257 2.45704 0.490471L2.79754 1.15873L3.13803 1.82698C3.41576 1.68547 3.76914 1.5959 4.34808 1.5486C4.93578 1.50058 5.68753 1.5 6.75 1.5V0.75ZM1.15873 2.79754L1.82698 3.13803C2.1146 2.57354 2.57354 2.1146 3.13803 1.82698L2.79754 1.15873L2.45704 0.490471C1.61031 0.921901 0.921901 1.61031 0.490471 2.45704L1.15873 2.79754ZM13.7233 1.84835L14.2537 1.31802C13.8689 0.933245 13.4216 0.625317 12.9357 0.404187L12.625 1.08683L12.3143 1.76946C12.6383 1.9169 12.9365 2.12214 13.193 2.37868L13.7233 1.84835ZM12.625 1.08683L12.9357 0.404187C12.3559 0.140345 11.721 0 11.0717 0V0.75V1.5C11.5046 1.5 11.9278 1.59354 12.3143 1.76946L12.625 1.08683ZM12.625 1.08683H11.875V5.125H12.625H13.375V1.08683H12.625ZM20.75 10.4283H21.5C21.5 9.77899 21.3597 9.14412 21.0958 8.56435L20.4132 8.875L19.7305 9.18565C19.9065 9.57224 20 9.99543 20 10.4283H20.75ZM20.4132 8.875L21.0958 8.56435C20.8747 8.07843 20.5668 7.63109 20.182 7.24632L19.6516 7.77665L19.1213 8.30698C19.3779 8.56352 19.5831 8.86168 19.7305 9.18565L20.4132 8.875ZM16.375 8.875V9.625H20.4132V8.875V8.125H16.375V8.875ZM12.625 5.125H11.875C11.875 7.61028 13.8897 9.625 16.375 9.625V8.875V8.125C14.7181 8.125 13.375 6.78186 13.375 5.125H12.625Z" fill="#282930"/>
</svg>
