<svg width="30" height="30" viewBox="0 0 30 30" fill="none" xmlns="http://www.w3.org/2000/svg">
<path d="M17.9733 3.59835L17.443 4.12868L17.9733 3.59835ZM23.9016 9.52665L24.432 8.99632L23.9016 9.52665ZM7.04754 27.0913L6.70704 27.7595H6.70704L7.04754 27.0913ZM5.40873 25.4525L6.07698 25.112H6.07698L5.40873 25.4525ZM22.9525 27.0913L23.293 27.7595H23.293L22.9525 27.0913ZM24.5913 25.4525L23.923 25.112L24.5913 25.4525ZM5.40873 4.54754L6.07698 4.88803V4.88803L5.40873 4.54754ZM7.04754 2.90873L7.38803 3.57698H7.38803L7.04754 2.90873ZM24.6632 10.625L25.3458 10.3143V10.3143L24.6632 10.625ZM19 27.5V26.75H11V27.5V28.25H19V27.5ZM5 21.5H5.75V8.5H5H4.25V21.5H5ZM25 12.1783H24.25V21.5H25H25.75V12.1783H25ZM17.9733 3.59835L17.443 4.12868L23.3713 10.057L23.9016 9.52665L24.432 8.99632L18.5037 3.06802L17.9733 3.59835ZM11 2.5V3.25H15.3217V2.5V1.75H11V2.5ZM11 27.5V26.75C9.93753 26.75 9.18578 26.7494 8.59808 26.7014C8.01914 26.6541 7.66576 26.5645 7.38803 26.423L7.04754 27.0913L6.70704 27.7595C7.23148 28.0267 7.80423 28.1415 8.47593 28.1964C9.13888 28.2506 9.96228 28.25 11 28.25V27.5ZM5 21.5H4.25C4.25 22.5377 4.24942 23.3611 4.30358 24.0241C4.35846 24.6958 4.47326 25.2685 4.74047 25.793L5.40873 25.4525L6.07698 25.112C5.93547 24.8342 5.8459 24.4809 5.7986 23.9019C5.75058 23.3142 5.75 22.5625 5.75 21.5H5ZM7.04754 27.0913L7.38803 26.423C6.82354 26.1354 6.3646 25.6765 6.07698 25.112L5.40873 25.4525L4.74047 25.793C5.1719 26.6397 5.86031 27.3281 6.70704 27.7595L7.04754 27.0913ZM19 27.5V28.25C20.0377 28.25 20.8611 28.2506 21.5241 28.1964C22.1958 28.1415 22.7685 28.0267 23.293 27.7595L22.9525 27.0913L22.612 26.423C22.3342 26.5645 21.9809 26.6541 21.4019 26.7014C20.8142 26.7494 20.0625 26.75 19 26.75V27.5ZM25 21.5H24.25C24.25 22.5625 24.2494 23.3142 24.2014 23.9019C24.1541 24.4809 24.0645 24.8342 23.923 25.112L24.5913 25.4525L25.2595 25.793C25.5267 25.2685 25.6415 24.6958 25.6964 24.0241C25.7506 23.3611 25.75 22.5377 25.75 21.5H25ZM22.9525 27.0913L23.293 27.7595C24.1397 27.3281 24.8281 26.6397 25.2595 25.793L24.5913 25.4525L23.923 25.112C23.6354 25.6765 23.1765 26.1354 22.612 26.423L22.9525 27.0913ZM5 8.5H5.75C5.75 7.43753 5.75058 6.68578 5.7986 6.09808C5.8459 5.51914 5.93547 5.16576 6.07698 4.88803L5.40873 4.54754L4.74047 4.20704C4.47326 4.73148 4.35846 5.30423 4.30358 5.97593C4.24942 6.63888 4.25 7.46228 4.25 8.5H5ZM11 2.5V1.75C9.96228 1.75 9.13888 1.74942 8.47593 1.80358C7.80423 1.85846 7.23148 1.97326 6.70704 2.24047L7.04754 2.90873L7.38803 3.57698C7.66576 3.43547 8.01914 3.3459 8.59808 3.2986C9.18578 3.25058 9.93753 3.25 11 3.25V2.5ZM5.40873 4.54754L6.07698 4.88803C6.3646 4.32354 6.82354 3.8646 7.38803 3.57698L7.04754 2.90873L6.70704 2.24047C5.86031 2.6719 5.1719 3.36031 4.74047 4.20704L5.40873 4.54754ZM17.9733 3.59835L18.5037 3.06802C18.1189 2.68325 17.6716 2.37532 17.1857 2.15419L16.875 2.83683L16.5643 3.51946C16.8883 3.6669 17.1865 3.87214 17.443 4.12868L17.9733 3.59835ZM16.875 2.83683L17.1857 2.15419C16.6059 1.89035 15.971 1.75 15.3217 1.75V2.5V3.25C15.7546 3.25 16.1778 3.34354 16.5643 3.51946L16.875 2.83683ZM16.875 2.83683H16.125V6.875H16.875H17.625V2.83683H16.875ZM25 12.1783H25.75C25.75 11.529 25.6097 10.8941 25.3458 10.3143L24.6632 10.625L23.9805 10.9357C24.1565 11.3222 24.25 11.7454 24.25 12.1783H25ZM24.6632 10.625L25.3458 10.3143C25.1247 9.82843 24.8168 9.38109 24.432 8.99632L23.9016 9.52665L23.3713 10.057C23.6279 10.3135 23.8331 10.6117 23.9805 10.9357L24.6632 10.625ZM20.625 10.625V11.375H24.6632V10.625V9.875H20.625V10.625ZM16.875 6.875H16.125C16.125 9.36028 18.1397 11.375 20.625 11.375V10.625V9.875C18.9681 9.875 17.625 8.53186 17.625 6.875H16.875Z" fill="#282930"/>
<path opacity="0.4" d="M10 16.125C9.58579 16.125 9.25 16.4608 9.25 16.875C9.25 17.2892 9.58579 17.625 10 17.625V16.875V16.125ZM20 17.625C20.4142 17.625 20.75 17.2892 20.75 16.875C20.75 16.4608 20.4142 16.125 20 16.125V16.875V17.625ZM10 20.5C9.58579 20.5 9.25 20.8358 9.25 21.25C9.25 21.6642 9.58579 22 10 22V21.25V20.5ZM16.25 22C16.6642 22 17 21.6642 17 21.25C17 20.8358 16.6642 20.5 16.25 20.5V21.25V22ZM10 16.875V17.625H20V16.875V16.125H10V16.875ZM10 21.25V22H16.25V21.25V20.5H10V21.25Z" fill="#282930"/>
</svg>
