<svg width="21" height="20" viewBox="0 0 21 20" fill="none" xmlns="http://www.w3.org/2000/svg">
<path fill-rule="evenodd" clip-rule="evenodd" d="M9.7053 1.39535C5.28734 1.39535 1.70588 4.92741 1.70588 9.28444C1.70588 13.6415 5.28734 17.1735 9.7053 17.1735C11.9145 17.1735 13.9134 16.2913 15.3618 14.8629C16.8101 13.4345 17.7047 11.4631 17.7047 9.28444C17.7047 4.92741 14.1233 1.39535 9.7053 1.39535ZM0.291016 9.28444C0.291016 4.15678 4.50594 0 9.7053 0C14.9047 0 19.1196 4.15678 19.1196 9.28444C19.1196 11.5969 18.2616 13.7128 16.8437 15.3377L20.3635 18.809C20.6398 19.0815 20.6398 19.5232 20.3635 19.7957C20.0873 20.0681 19.6393 20.0681 19.3631 19.7957L15.8433 16.3244C14.1956 17.7227 12.0501 18.5689 9.7053 18.5689C4.50594 18.5689 0.291016 14.4121 0.291016 9.28444Z" fill="#98A2B3"/>
</svg>
