<svg width="20" height="20" viewBox="0 0 20 20" fill="none" xmlns="http://www.w3.org/2000/svg">
<path fill-rule="evenodd" clip-rule="evenodd" d="M5.26025 0.204982C5.43994 0.0572274 5.65141 0 5.83725 0C6.0231 0 6.23457 0.057228 6.41426 0.204982L6.44613 0.231188L11.0006 4.90284C11.2897 5.19943 11.2837 5.67426 10.9871 5.96341C10.6905 6.25256 10.2157 6.24653 9.92655 5.94994L6.58725 2.52473V13.7C6.58725 14.1142 6.25147 14.45 5.83725 14.45C5.42304 14.45 5.08725 14.1142 5.08725 13.7V2.52473L1.74796 5.94994C1.45881 6.24653 0.983976 6.25256 0.687386 5.96341C0.390797 5.67426 0.384765 5.19943 0.673915 4.90284L5.22838 0.231188L5.26025 0.204982ZM14.1646 5.55C14.5788 5.55 14.9146 5.88579 14.9146 6.3V17.4753L18.2539 14.0501C18.5431 13.7535 19.0179 13.7474 19.3145 14.0366C19.6111 14.3257 19.6171 14.8006 19.328 15.0972L14.7735 19.7688L14.7416 19.795C14.5619 19.9428 14.3505 20 14.1646 20C13.9788 20 13.7673 19.9428 13.5876 19.795L13.5558 19.7688L9.00128 15.0972C8.71213 14.8006 8.71816 14.3257 9.01475 14.0366C9.31134 13.7474 9.78618 13.7535 10.0753 14.0501L13.4146 17.4753V6.3C13.4146 5.88579 13.7504 5.55 14.1646 5.55Z" fill="#282930"/>
</svg>
