<svg width="18" height="18" viewBox="0 0 18 18" fill="none" xmlns="http://www.w3.org/2000/svg">
<path fill-rule="evenodd" clip-rule="evenodd" d="M0.959623 0H8.40377C9.16729 0 9.89954 0.303309 10.4394 0.843202L17.1568 7.56057C18.2811 8.68484 18.2811 10.5076 17.1568 11.6319L11.6319 17.1568C10.5076 18.2811 8.68483 18.2811 7.56056 17.1568L0.8432 10.4394C0.303308 9.89954 0 9.16729 0 8.40377V0.959624C0 0.429638 0.429638 0 0.959623 0ZM8.1 5.85C8.1 7.09264 7.09264 8.1 5.85 8.1C4.60736 8.1 3.6 7.09264 3.6 5.85C3.6 4.60736 4.60736 3.6 5.85 3.6C7.09264 3.6 8.1 4.60736 8.1 5.85Z" fill="white"/>
</svg>
