<svg width="23" height="19" viewBox="0 0 23 19" fill="none" xmlns="http://www.w3.org/2000/svg">
<path d="M22.9025 0.408693C22.8231 0.168756 22.7283 0.101574 22.5817 0.0439885C22.2608 -0.0839781 21.7168 0.107972 21.7168 0.107972C21.7168 0.107972 2.43727 7.36048 1.33715 8.16347C1.09879 8.33623 1.01934 8.4354 0.98267 8.55377C0.793205 9.12642 1.38605 9.37915 1.38605 9.37915L6.35492 11.0747C6.35492 11.0747 6.54132 11.1035 6.6055 11.0587C7.73618 10.3101 17.9795 3.54068 18.5693 3.31354C18.664 3.28474 18.7312 3.31673 18.7129 3.38392C18.4776 4.25409 9.58193 12.5303 9.58193 12.5303C9.58193 12.5303 9.54832 12.5751 9.52692 12.6263L9.5147 12.6199L9.05021 17.7802C9.05021 17.7802 8.85463 19.3605 10.3673 17.7802C11.4338 16.6637 12.4636 15.7327 12.9801 15.2784C14.6883 16.5133 16.528 17.8793 17.3194 18.5928C17.7167 18.9511 18.0528 19.0086 18.3248 18.999C19.0766 18.9703 19.2874 18.1033 19.2874 18.1033C19.2874 18.1033 22.8017 3.30074 22.9178 1.31726C22.93 1.12211 22.9453 1.00054 22.9453 0.866174C22.9453 0.680622 22.93 0.495071 22.9025 0.405494V0.408693Z" fill="#686868" fill-opacity="0.8"/>
</svg>
