<svg width="60" height="60" viewBox="0 0 60 60" fill="none" xmlns="http://www.w3.org/2000/svg">
<path d="M46.6667 43.75C51.269 43.75 55 39.8325 55 35C55 31.1876 52.678 27.9447 49.4379 26.7455C49.6854 17.3977 42.4044 8.75 32.7778 8.75C26.0409 8.75 20.2375 12.947 17.61 18.9867C10.6341 18.4938 5 24.5491 5 31.3542C5 37.2862 8.96845 42.245 14.2698 43.4634" stroke="#1565C0" stroke-width="3" stroke-linecap="round"/>
<path opacity="0.4" d="M21.25 36.4075L29.775 28.8328C29.8371 28.7776 29.9186 28.75 30 28.75M38.75 36.4075L30.225 28.8328C30.1629 28.7776 30.0814 28.75 30 28.75M30 28.75V51.25" stroke="#1565C0" stroke-width="3" stroke-linecap="round"/>
</svg>
