<svg width="28" height="28" viewBox="0 0 28 28" fill="none" xmlns="http://www.w3.org/2000/svg">
<path fill-rule="evenodd" clip-rule="evenodd" d="M18.2033 17.1845C18.5388 17.5323 18.5288 18.0862 18.181 18.4217L16.1127 20.417H24.5C24.9832 20.417 25.375 20.8087 25.375 21.292C25.375 21.7752 24.9832 22.167 24.5 22.167H16.1127L18.181 24.1623C18.5288 24.4978 18.5388 25.0517 18.2033 25.3995C17.8677 25.7473 17.3138 25.7572 16.966 25.4217L13.4311 22.0117C13.231 21.8187 13.125 21.5573 13.125 21.292C13.125 21.0267 13.231 20.7653 13.4311 20.5723L16.966 17.1623C17.3138 16.8267 17.8677 16.8367 18.2033 17.1845Z" fill="#1565C0"/>
<g opacity="0.4">
<path fill-rule="evenodd" clip-rule="evenodd" d="M15.3711 25.6663H10.266C8.30583 25.6663 7.32574 25.6663 6.57705 25.2849C5.91848 24.9493 5.38305 24.4139 5.04749 23.7553C4.66602 23.0066 4.66602 22.0265 4.66602 20.0663V7.93301C4.66602 5.97282 4.66602 4.99273 5.04749 4.24404C5.38305 3.58547 5.91848 3.05004 6.57705 2.71449C7.32574 2.33301 8.30583 2.33301 10.266 2.33301H14.2996C14.8046 2.33301 15.2984 2.44215 15.7493 2.64738C16.1273 2.81937 16.4752 3.05886 16.7745 3.35813L22.3076 8.89121C22.6068 9.19049 22.8463 9.53839 23.0183 9.91634C23.2235 10.3673 23.3327 10.8611 23.3327 11.3661V19.133H19.2637C19.8445 18.4029 19.8857 17.3795 19.3776 16.607C19.3341 16.5408 19.2865 16.4766 19.235 16.4145C19.4223 16.254 19.541 16.0157 19.541 15.7497C19.541 15.2664 19.1493 14.8747 18.666 14.8747H9.33268C8.84943 14.8747 8.45768 15.2664 8.45768 15.7497C8.45768 16.2329 8.84943 16.6247 9.33268 16.6247H15.6734L13.2546 18.958H9.33268C8.84943 18.958 8.45768 19.3498 8.45768 19.833C8.45768 20.3163 8.84943 20.708 9.33268 20.708H11.9168C11.8665 20.8981 11.8409 21.0942 11.8409 21.2913C11.8409 21.8976 12.0833 22.4947 12.5394 22.9347L15.3711 25.6663ZM16.8637 4.94506L21.304 9.38535C21.5441 9.62552 21.7363 9.9047 21.8743 10.208H18.8498C17.2985 10.208 16.041 8.95049 16.041 7.39926V4.37467C16.3443 4.5127 16.6235 4.70489 16.8637 4.94506Z" fill="#1565C0"/>
<path d="M19.555 25.6466C20.3914 25.6133 20.9521 25.5241 21.4216 25.2849C22.0802 24.9493 22.6156 24.4139 22.9512 23.7553C23.0008 23.6579 23.044 23.5566 23.0816 23.4497H19.2637C19.7652 24.0801 19.8644 24.9292 19.555 25.6466Z" fill="#1565C0"/>
</g>
</svg>
