<svg width="50" height="50" viewBox="0 0 50 50" fill="none" xmlns="http://www.w3.org/2000/svg">
<path d="M9.99688 13.9358L10.0797 14.6812H10.0797L9.99688 13.9358ZM10.2897 13.9033L10.2069 13.1578H10.2069L10.2897 13.9033ZM39.709 13.9033L39.7918 13.1578L39.709 13.9033ZM40.0018 13.9358L40.0846 13.1904L40.0018 13.9358ZM15.004 10.616L14.3332 10.2806V10.2806L15.004 10.616ZM34.9947 10.616L34.3239 10.9514L34.9947 10.616ZM7.57857 42.0274L7.23808 42.6957H7.23808L7.57857 42.0274ZM4.84722 39.2961L4.17897 39.6366H4.17897L4.84722 39.2961ZM45.1515 39.2961L45.8197 39.6366L45.1515 39.2961ZM42.4201 42.0274L42.0796 41.3592L42.4201 42.0274ZM45.8287 19.9553L46.5782 19.9286V19.9286L45.8287 19.9553ZM40.4935 13.9944L40.6028 13.2524L40.6028 13.2524L40.4935 13.9944ZM4.16997 19.9553L4.9195 19.9819L4.16997 19.9553ZM9.5052 13.9944L9.3959 13.2524L9.3959 13.2524L9.5052 13.9944ZM35.416 19.042C35.0018 19.042 34.666 19.3778 34.666 19.792C34.666 20.2062 35.0018 20.542 35.416 20.542V19.792V19.042ZM37.4993 20.542C37.9136 20.542 38.2493 20.2062 38.2493 19.792C38.2493 19.3778 37.9136 19.042 37.4993 19.042V19.792V20.542ZM45.8327 20.4504H45.0827V32.7087H45.8327H46.5827V20.4504H45.8327ZM35.8327 42.7087V41.9587H14.166V42.7087V43.4587H35.8327V42.7087ZM4.16602 32.7087H4.91602V20.4504H4.16602H3.41602V32.7087H4.16602ZM9.99688 13.9358L10.0797 14.6812L10.3725 14.6487L10.2897 13.9033L10.2069 13.1578L9.91406 13.1904L9.99688 13.9358ZM39.709 13.9033L39.6262 14.6487L39.919 14.6812L40.0018 13.9358L40.0846 13.1904L39.7918 13.1578L39.709 13.9033ZM20.3824 7.29199V8.04199H29.6163V7.29199V6.54199H20.3824V7.29199ZM15.004 10.616L15.6748 10.9514C16.5664 9.16833 18.3888 8.04199 20.3824 8.04199V7.29199V6.54199C17.8207 6.54199 15.4788 7.98933 14.3332 10.2806L15.004 10.616ZM34.9947 10.616L34.3239 10.9514C35.3498 13.0034 37.3461 14.3953 39.6262 14.6487L39.709 13.9033L39.7918 13.1578C38.0174 12.9607 36.4639 11.8775 35.6655 10.2806L34.9947 10.616ZM10.2897 13.9033L10.3725 14.6487C12.6526 14.3953 14.6489 13.0034 15.6748 10.9514L15.004 10.616L14.3332 10.2806C13.5348 11.8775 11.9813 12.9607 10.2069 13.1578L10.2897 13.9033ZM34.9947 10.616L35.6655 10.2806C34.5199 7.98933 32.178 6.54199 29.6163 6.54199V7.29199V8.04199C31.6099 8.04199 33.4323 9.16833 34.3239 10.9514L34.9947 10.616ZM14.166 42.7087V41.9587C12.4035 41.9587 11.1267 41.9581 10.1221 41.876C9.12628 41.7946 8.46419 41.6369 7.91907 41.3592L7.57857 42.0274L7.23808 42.6957C8.02991 43.0992 8.91137 43.2821 9.99995 43.371C11.0798 43.4592 12.4282 43.4587 14.166 43.4587V42.7087ZM4.16602 32.7087H3.41602C3.41602 34.4464 3.41543 35.7949 3.50366 36.8747C3.5926 37.9633 3.77551 38.8448 4.17897 39.6366L4.84722 39.2961L5.51548 38.9556C5.23773 38.4105 5.08004 37.7484 4.99868 36.7526C4.9166 35.748 4.91602 34.4712 4.91602 32.7087H4.16602ZM7.57857 42.0274L7.91907 41.3592C6.88418 40.8319 6.04278 39.9905 5.51548 38.9556L4.84722 39.2961L4.17897 39.6366C4.85008 40.9537 5.92095 42.0246 7.23808 42.6957L7.57857 42.0274ZM45.8327 32.7087H45.0827C45.0827 34.4712 45.0821 35.748 45 36.7526C44.9187 37.7484 44.761 38.4105 44.4832 38.9556L45.1515 39.2961L45.8197 39.6366C46.2232 38.8448 46.4061 37.9633 46.495 36.8747C46.5833 35.7949 46.5827 34.4464 46.5827 32.7087H45.8327ZM35.8327 42.7087V43.4587C37.5705 43.4587 38.9189 43.4592 39.9987 43.371C41.0873 43.2821 41.9688 43.0992 42.7606 42.6957L42.4201 42.0274L42.0796 41.3592C41.5345 41.6369 40.8724 41.7946 39.8766 41.876C38.872 41.9581 37.5952 41.9587 35.8327 41.9587V42.7087ZM45.1515 39.2961L44.4832 38.9556C43.9559 39.9905 43.1145 40.8319 42.0796 41.3592L42.4201 42.0274L42.7606 42.6957C44.0778 42.0246 45.1486 40.9537 45.8197 39.6366L45.1515 39.2961ZM45.8327 20.4504H46.5827C46.5827 20.2006 46.5828 20.0564 46.5782 19.9286L45.8287 19.9553L45.0792 19.9819C45.0826 20.0765 45.0827 20.1882 45.0827 20.4504H45.8327ZM40.0018 13.9358L39.919 14.6812C40.1796 14.7102 40.2906 14.7226 40.3842 14.7364L40.4935 13.9944L40.6028 13.2524C40.4762 13.2338 40.3329 13.218 40.0846 13.1904L40.0018 13.9358ZM45.8287 19.9553L46.5782 19.9286C46.458 16.553 43.9445 13.7446 40.6028 13.2524L40.4935 13.9944L40.3842 14.7364C43.0098 15.1232 44.9848 17.3297 45.0792 19.9819L45.8287 19.9553ZM4.16602 20.4504H4.91602C4.91602 20.1882 4.91613 20.0765 4.9195 19.9819L4.16997 19.9553L3.42045 19.9286C3.4159 20.0564 3.41602 20.2007 3.41602 20.4504H4.16602ZM9.99688 13.9358L9.91406 13.1904C9.66583 13.218 9.52244 13.2338 9.3959 13.2524L9.5052 13.9944L9.61449 14.7364C9.70807 14.7226 9.8191 14.7102 10.0797 14.6812L9.99688 13.9358ZM4.16997 19.9553L4.9195 19.9819C5.01394 17.3297 6.98889 15.1232 9.6145 14.7364L9.5052 13.9944L9.3959 13.2524C6.05422 13.7446 3.54065 16.553 3.42045 19.9286L4.16997 19.9553ZM35.416 19.792V20.542H37.4993V19.792V19.042H35.416V19.792ZM24.9993 35.417V36.167C29.4296 36.167 33.041 32.5556 33.041 28.1253H32.291H31.541C31.541 31.7271 28.6012 34.667 24.9993 34.667V35.417ZM32.291 28.1253H33.041C33.041 23.6951 29.4296 20.0837 24.9993 20.0837V20.8337V21.5837C28.6012 21.5837 31.541 24.5235 31.541 28.1253H32.291ZM24.9993 20.8337V20.0837C20.5691 20.0837 16.9577 23.6951 16.9577 28.1253H17.7077H18.4577C18.4577 24.5235 21.3975 21.5837 24.9993 21.5837V20.8337ZM17.7077 28.1253H16.9577C16.9577 32.5556 20.5691 36.167 24.9993 36.167V35.417V34.667C21.3975 34.667 18.4577 31.7271 18.4577 28.1253H17.7077Z" fill="#282930"/>
</svg>
