<svg width="28" height="28" viewBox="0 0 28 28" fill="none" xmlns="http://www.w3.org/2000/svg">
<path d="M4.50715 20.6104C5.00199 17.1896 7.6562 14.3941 11.111 14.143C13.0848 13.9995 14.9209 13.9992 16.891 14.1422C20.3444 14.3927 22.9967 17.188 23.4913 20.6075L23.5875 21.2726C23.8726 23.2434 22.5005 25.0829 20.5163 25.2952C15.8593 25.7935 12.1548 25.7877 7.49098 25.2913C5.50362 25.0798 4.12696 23.2387 4.41248 21.2649L4.50715 20.6104Z" fill="#1565C0"/>
<path opacity="0.4" d="M19.0518 7.37416C19.0518 10.1583 16.7898 12.4153 13.9995 12.4153C11.2092 12.4153 8.94727 10.1583 8.94727 7.37416C8.94727 4.59001 11.2092 2.33301 13.9995 2.33301C16.7898 2.33301 19.0518 4.59001 19.0518 7.37416Z" fill="#1565C0"/>
</svg>
