<svg width="22" height="14" viewBox="0 0 22 14" fill="none" xmlns="http://www.w3.org/2000/svg">
<path fill-rule="evenodd" clip-rule="evenodd" d="M11 0.25C5.98545 0.25 2.50781 3.52807 0.970033 5.32805L0.939243 5.36404C0.690418 5.65479 0.461583 5.92217 0.327145 6.38056C0.267854 6.58273 0.25 6.81286 0.25 7C0.25 7.18714 0.267854 7.41727 0.327145 7.61944C0.461583 8.07783 0.690417 8.34521 0.939243 8.63596L0.970033 8.67196C2.50781 10.4719 5.98545 13.75 11 13.75C16.0146 13.75 19.4922 10.4719 21.03 8.67196L21.0608 8.63597C21.3096 8.34522 21.5384 8.07783 21.6729 7.61943C21.7321 7.41727 21.75 7.18714 21.75 7C21.75 6.81286 21.7321 6.58273 21.6729 6.38056C21.5384 5.92217 21.3096 5.65478 21.0608 5.36403L21.03 5.32805C19.4922 3.52807 16.0146 0.25 11 0.25ZM11 1.75C6.65653 1.75 3.56029 4.6054 2.1105 6.30238C1.83165 6.62878 1.80417 6.67434 1.76653 6.80268C1.76592 6.80519 1.76131 6.82442 1.75708 6.86234C1.75268 6.90176 1.75 6.94928 1.75 7C1.75 7.05072 1.75268 7.09824 1.75708 7.13766C1.76131 7.17558 1.76587 7.19456 1.76647 7.19707C1.80412 7.32542 1.83165 7.37122 2.1105 7.69762C3.56029 9.3946 6.65653 12.25 11 12.25C15.3435 12.25 18.4397 9.3946 19.8895 7.69762C20.1683 7.37125 20.1959 7.32538 20.2335 7.19706C20.2341 7.19453 20.2387 7.17555 20.2429 7.13766C20.2473 7.09824 20.25 7.05072 20.25 7C20.25 6.94928 20.2473 6.90176 20.2429 6.86234C20.2387 6.82445 20.2341 6.80518 20.2335 6.80265C20.1958 6.67433 20.1683 6.62875 19.8895 6.30238C18.4397 4.6054 15.3435 1.75 11 1.75Z" fill="#1565C0"/>
<path fill-rule="evenodd" clip-rule="evenodd" d="M11 4.75C9.75736 4.75 8.75 5.75736 8.75 7C8.75 8.24264 9.75736 9.25 11 9.25C12.2426 9.25 13.25 8.24264 13.25 7C13.25 5.75736 12.2426 4.75 11 4.75ZM7.25 7C7.25 4.92893 8.92893 3.25 11 3.25C13.0711 3.25 14.75 4.92893 14.75 7C14.75 9.07107 13.0711 10.75 11 10.75C8.92893 10.75 7.25 9.07107 7.25 7Z" fill="#1565C0"/>
</svg>
