<svg width="20" height="20" viewBox="0 0 20 20" fill="none" xmlns="http://www.w3.org/2000/svg">
<path fill-rule="evenodd" clip-rule="evenodd" d="M20 10C20 15.5228 15.5228 20 10 20C4.47715 20 0 15.5228 0 10C0 4.47715 4.47715 0 10 0C15.5228 0 20 4.47715 20 10ZM10.75 3.88892C10.75 3.4747 10.4142 3.13892 10 3.13892C9.58581 3.13892 9.25002 3.4747 9.25002 3.88892V9.68937L6.13636 12.803C5.84346 13.0959 5.84346 13.5708 6.13636 13.8637C6.42925 14.1566 6.90412 14.1566 7.19702 13.8637L10.4978 10.5629C10.6593 10.4014 10.75 10.1824 10.75 9.954V3.88892Z" fill="white"/>
</svg>
